<?xml version="1.0" standalone="no"?>
<!DOCTYPE svg PUBLIC "-//W3C//DTD SVG 20010904//EN"
 "http://www.w3.org/TR/2001/REC-SVG-20010904/DTD/svg10.dtd">
<svg version="1.0" xmlns="http://www.w3.org/2000/svg"
 width="656.000000pt" height="656.000000pt" viewBox="0 0 656.000000 656.000000"
 preserveAspectRatio="xMidYMid meet">
<metadata>
Created by potrace 1.14, written by Peter Selinger 2001-2017
</metadata>
<g transform="translate(0.000000,656.000000) scale(0.100000,-0.100000)"
fill="#000000" stroke="none">
<path d="M2445 5461 c-140 -49 -257 -117 -370 -216 -49 -43 -159 -141 -181
-162 -13 -13 -26 -23 -29 -23 -21 0 -253 -234 -440 -444 -95 -106 -149 -168
-167 -192 -13 -16 -27 -33 -33 -39 -6 -5 -36 -39 -66 -75 -30 -36 -57 -66 -61
-68 -5 -2 -8 -8 -8 -13 0 -5 -20 -35 -45 -68 -25 -32 -45 -64 -45 -70 0 -6 -4
-11 -9 -11 -6 0 -16 -11 -23 -24 -7 -14 -50 -75 -95 -138 -46 -62 -116 -160
-158 -218 -41 -58 -84 -115 -95 -126 -11 -12 -20 -25 -20 -29 0 -3 -6 -12 -12
-19 -7 -7 -22 -25 -33 -40 -21 -29 -108 -142 -125 -163 -5 -6 -32 -47 -61 -90
-128 -197 -136 -280 -38 -411 35 -47 373 -392 384 -392 2 0 19 -15 37 -32 44
-42 207 -191 234 -215 22 -19 187 -169 234 -213 15 -14 51 -45 80 -70 29 -25
71 -62 94 -82 57 -51 78 -68 122 -103 20 -16 42 -35 48 -40 6 -6 29 -24 51
-40 22 -16 45 -34 50 -39 19 -21 290 -206 301 -206 3 0 18 -9 32 -19 52 -36
301 -156 337 -161 3 -1 21 -8 42 -16 20 -9 44 -18 52 -20 9 -2 59 -15 111 -29
52 -14 110 -28 129 -31 18 -3 43 -8 55 -10 20 -4 75 -11 146 -20 209 -24 707
-24 829 1 13 2 47 7 75 10 28 2 62 7 76 10 14 4 34 8 45 9 82 14 274 69 355
103 90 38 237 108 251 120 8 7 19 13 23 13 11 0 160 93 164 102 2 5 8 8 13 8
20 0 378 275 484 371 17 15 42 38 56 50 15 13 62 56 104 94 43 39 87 78 99 88
11 10 59 54 106 97 117 108 132 120 143 120 6 0 8 3 5 6 -3 3 15 24 40 47 312
281 492 469 538 565 54 111 -2 240 -233 538 -107 138 -109 141 -219 294 -53
74 -114 158 -134 185 -20 28 -85 118 -144 200 -58 83 -118 164 -134 181 -15
17 -47 55 -72 84 -227 271 -497 558 -609 650 -23 19 -52 43 -64 53 -39 33
-151 131 -169 150 -10 9 -18 15 -18 13 0 -2 -15 10 -34 27 -85 78 -249 171
-341 193 -16 4 -35 10 -40 15 -6 4 -47 7 -90 5 -106 -3 -168 -33 -350 -171
-171 -129 -227 -158 -313 -163 -99 -7 -162 12 -255 75 -45 31 -84 59 -87 62
-9 13 -174 128 -222 155 -56 32 -74 37 -158 41 -52 3 -82 -2 -145 -24z"/>
</g>
</svg>
