<svg width="129" height="32" viewBox="0 0 129 32" fill="none" xmlns="http://www.w3.org/2000/svg">
<path d="M19.8414 15.1531C19.8693 12.9864 21.0054 10.9849 22.8516 9.85003C21.6816 8.17929 19.7922 7.15798 17.7533 7.09419C15.6083 6.86907 13.5288 8.37758 12.4357 8.37758C11.3215 8.37758 9.63852 7.11655 7.82625 7.15383C5.44178 7.23085 3.27269 8.55353 2.1126 10.6379C-0.357872 14.9146 1.48488 21.1999 3.85138 24.6568C5.03539 26.3496 6.41916 28.2404 8.22979 28.1734C10.0016 28.0999 10.6633 27.0437 12.8021 27.0437C14.921 27.0437 15.5418 28.1734 17.3892 28.1307C19.2904 28.0999 20.4883 26.4304 21.6308 24.7217C22.4815 23.5155 23.1361 22.1824 23.5704 20.7718C21.3123 19.8169 19.844 17.6046 19.8414 15.1531Z" fill="white"/>
<path d="M16.3522 4.82108C17.3888 3.57681 17.8995 1.9775 17.7759 0.362793C16.1921 0.529113 14.7292 1.28594 13.6786 2.48248C12.6411 3.66303 12.1155 5.2075 12.2176 6.77572C13.8226 6.79224 15.3465 6.07182 16.3522 4.82108Z" fill="white"/>
<path fill-rule="evenodd" clip-rule="evenodd" d="M36.1927 23.8876H42.2391L43.6899 28.1745H46.2946L40.5675 12.314H37.9067L32.1797 28.1745H34.7407L36.1927 23.8876ZM41.6107 21.9101H36.818L39.1819 14.9527H39.248L41.6107 21.9101Z" fill="white"/>
<path fill-rule="evenodd" clip-rule="evenodd" d="M53.8372 28.2955C56.74 28.2955 58.6636 25.9868 58.6636 22.3934C58.6636 18.8099 56.7287 16.4899 53.7935 16.4899C52.2831 16.4412 50.8683 17.2267 50.111 18.5342H50.0674V16.6109H47.7695V31.9999H50.1434V26.2724H50.1984C50.9234 27.5882 52.3367 28.374 53.8372 28.2955ZM53.1669 18.5126C55.0131 18.5126 56.2231 20.0518 56.2231 22.3929C56.2231 24.7553 55.0131 26.2832 53.1669 26.2832C51.3531 26.2832 50.1331 24.7229 50.1331 22.3929C50.1331 20.0842 51.3531 18.5126 53.1669 18.5126Z" fill="white"/>
<path fill-rule="evenodd" clip-rule="evenodd" d="M66.5657 28.2935C69.4685 28.2935 71.3921 25.9848 71.3921 22.3914C71.3921 18.8079 69.4573 16.488 66.522 16.488C65.0116 16.4393 63.5968 17.2247 62.8395 18.5323H62.7958V16.609H60.498V31.998H62.8719V26.2704H62.9269C63.6519 27.5862 65.0652 28.372 66.5657 28.2935ZM65.8954 18.5107C67.7416 18.5107 68.9516 20.0498 68.9516 22.391H68.9516C68.9516 24.7533 67.7416 26.2813 65.8954 26.2813C64.0816 26.2813 62.8616 24.7209 62.8616 22.391C62.8616 20.0822 64.0816 18.5107 65.8954 18.5107Z" fill="white"/>
<path d="M79.8051 23.7547C79.981 25.3275 81.5091 26.3602 83.5973 26.3602C85.5982 26.3602 87.0378 25.3275 87.0378 23.9093C87.0378 22.6782 86.1696 21.9411 84.1138 21.4359L82.058 20.9407C79.1452 20.2373 77.7929 18.8752 77.7929 16.665C77.7929 13.9285 80.1781 12.0488 83.5649 12.0488C86.9168 12.0488 89.2146 13.9285 89.2919 16.665H86.8955C86.7521 15.0822 85.4435 14.1268 83.5312 14.1268C81.6188 14.1268 80.3103 15.0935 80.3103 16.5004C80.3103 17.6217 81.1461 18.2815 83.1906 18.7866L84.9383 19.2157C88.1929 19.9853 89.5451 21.2925 89.5451 23.6124C89.5451 26.5797 87.1812 28.4381 83.4214 28.4381C79.9036 28.4381 77.5284 26.6233 77.375 23.7546L79.8051 23.7547Z" fill="white"/>
<path d="M94.6682 13.8735V16.6101H96.8675V18.4897H94.6682V24.8646C94.6682 25.855 95.1086 26.3165 96.0754 26.3165C96.3365 26.3119 96.5971 26.2936 96.8563 26.2615V28.13C96.4216 28.2112 95.9798 28.248 95.5377 28.2397C93.1963 28.2397 92.2831 27.3604 92.2831 25.1178V18.4897H90.6016V16.6101H92.2831V13.8735H94.6682Z" fill="white"/>
<path fill-rule="evenodd" clip-rule="evenodd" d="M103.626 16.4692C100.284 16.4692 98.1406 18.7555 98.1406 22.3938C98.1406 26.0421 100.262 28.3185 103.626 28.3185C106.99 28.3185 109.112 26.0422 109.112 22.3938C109.112 18.7555 106.979 16.4692 103.626 16.4692ZM103.627 18.4249C105.55 18.4249 106.694 19.8979 106.694 22.3937H106.694C106.694 24.8995 105.55 26.3614 103.627 26.3614C101.703 26.3614 100.56 24.8995 100.56 22.3937C100.56 19.9092 101.703 18.4249 103.627 18.4249Z" fill="white"/>
<path d="M111.068 16.6108H113.332V18.579H113.387C113.703 17.312 114.864 16.44 116.169 16.4898C116.443 16.4889 116.716 16.5186 116.983 16.5784V18.7986C116.637 18.693 116.277 18.6446 115.916 18.6551C115.218 18.6268 114.543 18.9049 114.067 19.4164C113.591 19.9279 113.363 20.6217 113.442 21.3156V28.1744H111.068L111.068 16.6108Z" fill="white"/>
<path fill-rule="evenodd" clip-rule="evenodd" d="M122.949 28.3185C125.565 28.3185 127.609 26.8778 127.929 24.7787L125.674 24.7786C125.242 25.8516 124.156 26.513 123.004 26.4051C122.14 26.4369 121.304 26.0961 120.709 25.4695C120.113 24.8428 119.816 23.9906 119.892 23.1297V22.9863H128.061V22.1731C128.061 18.667 126.049 16.4692 122.849 16.4692C119.596 16.4692 117.496 18.8216 117.496 22.4487C117.496 26.0646 119.584 28.3185 122.949 28.3185ZM125.687 21.3259L119.905 21.3259C119.903 20.5452 120.213 19.796 120.766 19.2449C121.319 18.6938 122.069 18.3864 122.85 18.391C123.625 18.3744 124.371 18.6816 124.91 19.2387C125.448 19.7959 125.73 20.5523 125.687 21.3259Z" fill="white"/>
<path fill-rule="evenodd" clip-rule="evenodd" d="M39.2103 1.41996C38.5156 0.686423 37.5285 0.303048 36.5207 0.375359L33.7676 0.375359V7.99633H36.5207C38.7911 7.99633 40.1071 6.59682 40.1071 4.16211C40.2342 3.15988 39.905 2.1535 39.2103 1.41996ZM36.3883 6.91744H34.9513V1.45121H36.3883C37.1047 1.41145 37.8014 1.69389 38.2878 2.22127C38.7742 2.74865 38.9995 3.46579 38.9019 4.17653C39.0071 4.89023 38.7851 5.61333 38.2974 6.14504C37.8098 6.67676 37.1085 6.96049 36.3883 6.91744Z" fill="white"/>
<path fill-rule="evenodd" clip-rule="evenodd" d="M42.7203 2.54478C41.8403 3.09081 41.3459 4.08846 41.4445 5.11933C41.344 6.1513 41.8379 7.15089 42.7187 7.69809C43.5996 8.2453 44.7146 8.2453 45.5955 7.69809C46.4763 7.15089 46.9702 6.1513 46.8697 5.11933C46.9683 4.08846 46.4739 3.09081 45.5939 2.54478C44.7139 1.99875 43.6003 1.99875 42.7203 2.54478ZM44.1586 3.14266C45.1416 3.14266 45.7017 3.8717 45.7017 5.11835H45.7017C45.7017 6.37001 45.1416 7.09842 44.1586 7.09843C43.1719 7.09843 42.6168 6.37501 42.6168 5.11837C42.6168 3.8717 43.1719 3.14266 44.1586 3.14266Z" fill="white"/>
<path d="M54.0833 7.99684H52.9057L51.7169 3.76105H51.6271L50.4433 7.99684H49.2769L47.6914 2.24561H48.8428L49.8732 6.63414H49.958L51.1406 2.24561H52.2296L53.4122 6.63414H53.502L54.5274 2.24561H55.6626L54.0833 7.99684Z" fill="white"/>
<path d="M56.9942 2.24415H58.0869V3.15779H58.1717C58.4667 2.48511 59.156 2.07363 59.8882 2.13313C60.4552 2.09052 61.0107 2.30797 61.398 2.72411C61.7853 3.14024 61.9624 3.70989 61.8792 4.27222V7.99532H60.744V4.55725C60.744 3.63301 60.3423 3.17338 59.5028 3.17338C59.1182 3.15547 58.745 3.30637 58.4811 3.58651C58.2171 3.86664 58.0886 4.24809 58.1293 4.63083V7.99539H56.9941L56.9942 2.24415Z" fill="white"/>
<path d="M63.6883 0L64.8235 0V7.99635H63.6883V0Z" fill="white"/>
<path fill-rule="evenodd" clip-rule="evenodd" d="M67.6756 2.54576C66.7955 3.0918 66.301 4.08948 66.3996 5.12041C66.2992 6.15242 66.7932 7.15198 67.674 7.69916C68.5549 8.24634 69.67 8.24634 70.5509 7.69916C71.4317 7.15198 71.9257 6.15242 71.8253 5.12041C71.9239 4.08948 71.4294 3.0918 70.5493 2.54576C69.6693 1.99972 68.5557 1.99972 67.6756 2.54576ZM69.1137 3.14347C70.0967 3.14347 70.6568 3.87251 70.6568 5.11917H70.6568C70.6568 6.37082 70.0967 7.09923 69.1137 7.09924C68.1271 7.09924 67.5719 6.37583 67.5719 5.11918C67.5719 3.87251 68.127 3.14347 69.1137 3.14347Z" fill="white"/>
<path fill-rule="evenodd" clip-rule="evenodd" d="M75.1609 4.65414C73.7924 4.73896 73.0215 5.33578 73.0215 6.37103C73.0234 6.86189 73.2329 7.32904 73.5982 7.65698C73.9635 7.98491 74.4505 8.14303 74.9388 8.09225C75.6354 8.12445 76.2954 7.77949 76.6665 7.18925H76.7564V7.99749H77.8491V4.06792C77.8491 2.85305 77.0358 2.13525 75.5937 2.13525C74.2889 2.13525 73.3595 2.76887 73.2435 3.75672H74.3425C74.4685 3.35011 74.9076 3.11749 75.5413 3.11749C76.3173 3.11749 76.7189 3.46049 76.7189 4.06792V4.56434L75.1609 4.65414ZM76.7198 5.39787V5.87869C76.6949 6.24524 76.5224 6.58602 76.2416 6.82302C75.9609 7.06002 75.5959 7.17295 75.2304 7.13595C74.6128 7.13595 74.1637 6.83473 74.1637 6.31711C74.1637 5.81009 74.523 5.54067 75.3151 5.48767L76.7198 5.39787Z" fill="white"/>
<path fill-rule="evenodd" clip-rule="evenodd" d="M81.7294 2.14972C80.2761 2.14972 79.3418 3.30096 79.3418 5.11826C79.3418 6.93992 80.2662 8.09119 81.7294 8.09113C82.4713 8.11847 83.1671 7.73196 83.5357 7.08769H83.6255V7.99635H84.7133V0L83.5781 0V3.15872H83.4933C83.1505 2.50907 82.4632 2.11591 81.7294 2.14972ZM82.0509 7.07204C81.0891 7.07204 80.514 6.33801 80.514 5.11816H80.514C80.514 3.90828 81.0953 3.16927 82.0509 3.16927C83.0014 3.16927 83.599 3.9245 83.599 5.12315C83.599 6.32742 83.0076 7.07204 82.0509 7.07204Z" fill="white"/>
<path fill-rule="evenodd" clip-rule="evenodd" d="M90.6851 2.54478C89.8051 3.09081 89.3107 4.08846 89.4094 5.11933C89.3089 6.1513 89.8028 7.15089 90.6836 7.69809C91.5644 8.2453 92.6795 8.2453 93.5603 7.69809C94.4411 7.15089 94.935 6.1513 94.8345 5.11933C94.9331 4.08846 94.4388 3.09081 93.5587 2.54478C92.6787 1.99875 91.5652 1.99875 90.6851 2.54478ZM92.1242 3.14266C93.1071 3.14266 93.6672 3.8717 93.6672 5.11835C93.6672 6.37001 93.1071 7.09842 92.1242 7.09843C91.1375 7.09843 90.5824 6.37501 90.5824 5.11837C90.5824 3.8717 91.1374 3.14266 92.1242 3.14266Z" fill="white"/>
<path d="M96.3574 2.24415H97.4502V3.15779H97.535C97.83 2.48511 98.5193 2.07363 99.2515 2.13313C99.8184 2.09052 100.374 2.30797 100.761 2.72411C101.149 3.14024 101.326 3.70989 101.242 4.27222V7.99532H100.107V4.55725C100.107 3.63301 99.7056 3.17338 98.8661 3.17338C98.4815 3.15547 98.1083 3.30637 97.8443 3.58651C97.5803 3.86664 97.4519 4.24809 97.4926 4.63083V7.99539H96.3574V2.24415Z" fill="white"/>
<path d="M107.659 0.812988V2.27106H108.905V3.22711H107.659V6.18443C107.659 6.78687 107.907 7.05067 108.472 7.05067C108.617 7.0502 108.761 7.04146 108.905 7.02447V7.96991C108.701 8.00637 108.495 8.02577 108.288 8.02791C107.025 8.02791 106.523 7.58387 106.523 6.47504V3.22706H105.609V2.27101H106.523V0.812988H107.659Z" fill="white"/>
<path d="M110.453 0L111.578 0V3.16936H111.668C111.977 2.4908 112.679 2.07879 113.422 2.1391C113.986 2.10843 114.534 2.33068 114.917 2.7453C115.3 3.15993 115.478 3.72375 115.403 4.28319V7.99636H114.267V4.56319C114.267 3.64456 113.839 3.17932 113.037 3.17932C112.642 3.14694 112.253 3.29049 111.973 3.57161C111.694 3.85273 111.553 4.24275 111.588 4.6374V7.99634H110.453L110.453 0Z" fill="white"/>
<path fill-rule="evenodd" clip-rule="evenodd" d="M119.531 8.10859C120.655 8.23049 121.705 7.52956 122.024 6.44472L120.931 6.44468C120.658 6.93313 120.118 7.20858 119.562 7.14191C119.134 7.14667 118.724 6.97055 118.432 6.65688C118.14 6.3432 117.995 5.92107 118.031 5.4943V5.43069H122.092V5.03464C122.092 3.22865 121.127 2.13535 119.526 2.13535C118.757 2.12879 118.023 2.45616 117.514 3.03265C117.006 3.60913 116.772 4.378 116.874 5.14006C116.769 5.90002 117.004 6.66766 117.515 7.23931C118.027 7.81096 118.764 8.12884 119.531 8.10859ZM120.937 4.58993H118.031C118.026 4.19335 118.182 3.81149 118.462 3.53098C118.742 3.25046 119.124 3.09507 119.521 3.10006C119.912 3.09108 120.289 3.24777 120.559 3.5315C120.828 3.81523 120.966 4.19962 120.937 4.58993Z" fill="white"/>
</svg>
