<svg xmlns="http://www.w3.org/2000/svg" width="115" class="blink" height="80" fill="none" viewBox="0 0 115 80">
  <g filter="url(#a)">
    <path stroke="#fff" stroke-width="2.4" d="m25 25.6 5.2 8.5c.5 1 1.1 1.8 1.5 2.8.7 1.3 1.7 2.8 0 4-1.6 1-2.7-.5-3.6-1.5a1054 1054 0 0 1-14-19.6c-1-1.5-2-2.9-2.7-4.5-1.5-3.3-.3-5.2 3.3-5.1a338.7 338.7 0 0 1 20.5 1.3c1.2.2 2.2.9 3.3 1.3-.9 2.5-2.4 2.3-3.9 2.2H23.7c-1.3 0-2.6 0-4.3.7 1.4 1 2.6 2 4 2.8l31.3 19.3L100.2 66c1.3.8 2.3 2 3.6 3.2-2.6 1.4-4 0-5.4-.8L75.8 54.9 27 26.2l-2-.6Z" shape-rendering="crispEdges"/>
  </g>
  <defs>
    <filter id="a" width="113.6" height="79.2" x=".9" y=".3" color-interpolation-filters="sRGB" filterUnits="userSpaceOnUse">
      <feFlood flood-opacity="0" result="BackgroundImageFix"/>
      <feColorMatrix in="SourceAlpha" result="hardAlpha" values="0 0 0 0 0 0 0 0 0 0 0 0 0 0 0 0 0 0 127 0"/>
      <feOffset/>
      <feGaussianBlur stdDeviation="4.3"/>
      <feComposite in2="hardAlpha" operator="out"/>
      <feColorMatrix values="0 0 0 0 0.528433 0 0 0 0 0.451667 0 0 0 0 1 0 0 0 1 0"/>
      <feBlend in2="BackgroundImageFix" result="effect1_dropShadow_299_4380"/>
      <feColorMatrix in="SourceAlpha" result="hardAlpha" values="0 0 0 0 0 0 0 0 0 0 0 0 0 0 0 0 0 0 127 0"/>
      <feOffset/>
      <feGaussianBlur stdDeviation="4.3"/>
      <feComposite in2="hardAlpha" operator="out"/>
      <feColorMatrix values="0 0 0 0 1 0 0 0 0 0 0 0 0 0 0.96 0 0 0 1 0"/>
      <feBlend in2="effect1_dropShadow_299_4380" result="effect2_dropShadow_299_4380"/>
      <feBlend in="SourceGraphic" in2="effect2_dropShadow_299_4380" result="shape"/>
    </filter>
  </defs>
</svg>
