<svg xmlns="http://www.w3.org/2000/svg" class="blink" width="165" height="251" fill="none">
  <g filter="url(#a)" opacity=".4">
    <path stroke="#fff" stroke-width="2.4" d="M137.6 209.2c-.8.8-1 1.3-1.3 1.6a109.5 109.5 0 0 1-89.4 1c-7.5-3.2-14-8.3-19.4-14.8a40 40 0 0 1-3.2-47.8c5-7.9 11.2-14.6 20-18.1 4 2 7.8 4.2 11.6 5.9a22 22 0 0 0 19 0c4.7-2.2 7.4-5.8 6.8-9.2-.7-4.4-4.1-6.9-8-7.3-5.6-.7-11.2-.6-16.6-.3-3.5.2-7.1 1.3-10.6 2.2-12.3-12-8.7-29.3 8.4-40.8 2.3 1 4.7 2 7 2.8 9 2.8 17.8 2.2 25.7-3.2 3-2.1 5.5-5 4.7-9.2-.6-3.3-4-5.7-8.8-6.3a47.6 47.6 0 0 0-22 4c-2.3 1.1-4.8 2.1-7 3.3-19.7-18-21-48 1.2-60.6-1.7-1-3-2.1-4-2.2-1.3 0-2.8 1-3.8 2C38.4 21 32.7 31.5 34.5 45c1.3 10 5.2 19 11 27.3 1 1.2 1.8 2.3 2.5 3.6v1.2c-.8 1-1.8 2.3-3 3.5-14.4 14.5-16.2 26.2-6.4 44.8-1.5 1.1-3.3 2.5-5 3.6-10 7-17 16.3-20.7 28.1-6.1 19.2 0 38.8 16 52.1a76 76 0 0 0 29.6 15c26.5 6.8 52.2 5.4 77.1-6.6 1.4-.6 2.6-1.3 4-1.8l1.5.1c-2 4.9-5.2 8.5-8.3 12.2-2.8 3.7-6 7.4-9.3 11.3 3.5 2 6 1.1 8.2-.4 2.5-1.9 5.2-3.6 7-6 5-6.4 10-13 14.6-20 3.4-5.5 1.6-9-4.3-9.7-12.7-1.6-25.4-3-38.2-4.4-2-.2-4 0-6.7 0 1 4.3 3.6 4.8 6 5.2 9.2 1.4 18 3.1 27.5 5ZM86 73C79 80.6 69.7 82 62 76.8c7.7-3 14.9-5.9 24.1-3.8Zm-10.9 54.9c-6.9 6-14.2 5.8-21.1-.3 7.2-1.8 13.8-3.2 21.1.3Z" shape-rendering="crispEdges"/>
  </g>
  <defs>
    <filter id="a" width="164.2" height="250.1" x=".7" y=".4" color-interpolation-filters="sRGB" filterUnits="userSpaceOnUse">
      <feFlood flood-opacity="0" result="BackgroundImageFix"/>
      <feColorMatrix in="SourceAlpha" result="hardAlpha" values="0 0 0 0 0 0 0 0 0 0 0 0 0 0 0 0 0 0 127 0"/>
      <feOffset/>
      <feGaussianBlur stdDeviation="4.3"/>
      <feComposite in2="hardAlpha" operator="out"/>
      <feColorMatrix values="0 0 0 0 0.528433 0 0 0 0 0.451667 0 0 0 0 1 0 0 0 1 0"/>
      <feBlend in2="BackgroundImageFix" result="effect1_dropShadow_322_3129"/>
      <feColorMatrix in="SourceAlpha" result="hardAlpha" values="0 0 0 0 0 0 0 0 0 0 0 0 0 0 0 0 0 0 127 0"/>
      <feOffset/>
      <feGaussianBlur stdDeviation="4.3"/>
      <feComposite in2="hardAlpha" operator="out"/>
      <feColorMatrix values="0 0 0 0 1 0 0 0 0 0 0 0 0 0 0.96 0 0 0 1 0"/>
      <feBlend in2="effect1_dropShadow_322_3129" result="effect2_dropShadow_322_3129"/>
      <feBlend in="SourceGraphic" in2="effect2_dropShadow_322_3129" result="shape"/>
    </filter>
  </defs>
</svg>
