<svg xmlns="http://www.w3.org/2000/svg" width="114" height="93" fill="none" class="blink" viewBox="0 0 114 93">
  <g filter="url(#a)">
    <path stroke="#fff" stroke-width="2.4" d="M100 60c.8.1 1.8 0 2.1-.3.7-1.2 2.2-2.6 2-3.5a802 802 0 0 0-10.4-42.4c-1-4-5.2-4.4-9.1-2.4L48.5 31C61.5 37 71 27 82 25.5A91.8 91.8 0 0 1 9.5 82.3s51.2 2.9 78-38.5c1.1-2 2.6-3.6 4.6-6L100 60Z" shape-rendering="crispEdges"/>
  </g>
  <defs>
    <filter id="a" width="113.3" height="91.8" x=".6" y=".4" color-interpolation-filters="sRGB" filterUnits="userSpaceOnUse">
      <feFlood flood-opacity="0" result="BackgroundImageFix"/>
      <feColorMatrix in="SourceAlpha" result="hardAlpha" values="0 0 0 0 0 0 0 0 0 0 0 0 0 0 0 0 0 0 127 0"/>
      <feOffset/>
      <feGaussianBlur stdDeviation="4.3"/>
      <feComposite in2="hardAlpha" operator="out"/>
      <feColorMatrix values="0 0 0 0 0.528433 0 0 0 0 0.451667 0 0 0 0 1 0 0 0 1 0"/>
      <feBlend in2="BackgroundImageFix" result="effect1_dropShadow_299_4377"/>
      <feColorMatrix in="SourceAlpha" result="hardAlpha" values="0 0 0 0 0 0 0 0 0 0 0 0 0 0 0 0 0 0 127 0"/>
      <feOffset/>
      <feGaussianBlur stdDeviation="4.3"/>
      <feComposite in2="hardAlpha" operator="out"/>
      <feColorMatrix values="0 0 0 0 1 0 0 0 0 0 0 0 0 0 0.96 0 0 0 1 0"/>
      <feBlend in2="effect1_dropShadow_299_4377" result="effect2_dropShadow_299_4377"/>
      <feBlend in="SourceGraphic" in2="effect2_dropShadow_299_4377" result="shape"/>
    </filter>
  </defs>
</svg>
