<svg xmlns="http://www.w3.org/2000/svg" width="54" height="112" fill="none" viewBox="0 0 54 112">
  <g filter="url(#a)" opacity=".4">
    <path stroke="#fff" stroke-width="2.4" d="m31.3 85.5 5.2-7.6c.5-.8 1-1.6 1.7-2.4.8-1 1.8-2.5 3.8-2 2 .7 1.2 2.2.8 3.3a814.7 814.7 0 0 1-10.4 19c-.9 1.4-1.6 2.8-2.8 4-2.3 2.7-4.8 2.7-6.9.2a259.4 259.4 0 0 1-11.2-14.7c-.5-.8-.5-1.9-.7-2.9 3-.5 3.6.6 4.5 1.6l6.5 7.6c.8.8 1.6 1.8 3.4 2.5 0-1.4.3-2.7.3-4L25 59.3l-.4-44.7c0-1.3.5-2.5 1-4 2.9 1.1 2.4 2.8 2.4 4 .4 7.4.6 14.7.8 22l1.7 47.2.7 1.7Z" shape-rendering="crispEdges"/>
  </g>
  <defs>
    <filter id="a" width="52.4" height="111.4" x=".7" y=".3" color-interpolation-filters="sRGB" filterUnits="userSpaceOnUse">
      <feFlood flood-opacity="0" result="BackgroundImageFix"/>
      <feColorMatrix in="SourceAlpha" result="hardAlpha" values="0 0 0 0 0 0 0 0 0 0 0 0 0 0 0 0 0 0 127 0"/>
      <feOffset/>
      <feGaussianBlur stdDeviation="4.3"/>
      <feComposite in2="hardAlpha" operator="out"/>
      <feColorMatrix values="0 0 0 0 0.528433 0 0 0 0 0.451667 0 0 0 0 1 0 0 0 1 0"/>
      <feBlend in2="BackgroundImageFix" result="effect1_dropShadow_290_2837"/>
      <feColorMatrix in="SourceAlpha" result="hardAlpha" values="0 0 0 0 0 0 0 0 0 0 0 0 0 0 0 0 0 0 127 0"/>
      <feOffset/>
      <feGaussianBlur stdDeviation="4.3"/>
      <feComposite in2="hardAlpha" operator="out"/>
      <feColorMatrix values="0 0 0 0 1 0 0 0 0 0 0 0 0 0 0.96 0 0 0 1 0"/>
      <feBlend in2="effect1_dropShadow_290_2837" result="effect2_dropShadow_290_2837"/>
      <feBlend in="SourceGraphic" in2="effect2_dropShadow_290_2837" result="shape"/>
    </filter>
  </defs>
</svg>
