<svg xmlns="http://www.w3.org/2000/svg" width="559" height="458" fill="none" viewBox="0 0 559 458">
  <g opacity=".4">
    <path stroke="#fff" stroke-width="2.37" d="M143.08 431.19c3.73 3.35 8.84 7.94 12.81 10.57 14.32 10.31 17.06 8.74 36.13-17.54 14.8-22.36 19.08-26.29 29.83-28.48 4.9-1 6.85-1.39 14.49 1.13 5.28.95 14.1 4.25 20.96 7.94 6.66 2.71 14.3 5.23 18.6 6.38 5.49 1.94 7.44 1.54 12.33.55 5.67-2.18 8.4-3.75 20.7-13.38 12.46-10.31 14.81-11.15 20.77-13.26l.89-.32c12.5-3.56 19.37.13 29 12.41 5.3 6.05 10 9.16 15.3 10.12 5.28.96 13.1-.64 19.54-3.98 2.93-.6 10.93-6.3 16.98-11.6 16.78-12.59 22.25-15.74 31.04-17.53 9-.81 17.42.52 29.96 7.13 7.84 3.49 12.15 4.65 15.28 5.03 8.02-.62 12.69-7.68 19.46-29.41 5.2-19.39 9.88-26.45 21.97-37.05 11.31-9.43 16.76-17.67 19.08-26.28.96-5.29.54-12.33-1.81-13.88l-1.18-.78-5.07 5.1c-10.13 10.21-21.27 15.53-36.13 17.54-13.88 1.81-24.25.87-39.33-3.18-19.39-5.2-34.29-13.37-72.93-43.15l-2.36-1.56 2.76 3.51c11.78 12.87 18.08 23.8 15.35 25.37l-.78 1.18-4.9-4.09c-7.07-4.67-18.07-18.71-23.2-28.86-4.72-8.2-16.94-33.2-23.06-48.23-6.32-16.02-11.46-31.25-19-63.3-9.93-38.7-15.27-54.91-19.21-64.29-12.64-32.03-38.74-55.2-69.88-63.11-10.57-1.92-19.76-2.08-30.52.1-27.37 5.59-53.9 25.24-64.96 50.9-10.88 21.56-12.38 39.17-8.72 77.1 5.45 46.73 5.68 57.88 1.9 94.28-1.7 16.63-4.2 29.35-9.43 43.65a209.13 209.13 0 0 1-23.33 40.38c-21.03 26.68-33.32 36.3-48.96 39.5-10.75 2.18-18.2.65-33.3-8.5-9-4.26-13.31-5.42-16.82-2.67-3.32 3.73-3.3 8.82-2.48 17.81 2.2 15.84 11.06 29.3 22.82 37.08 12.95 8.56 25.87 12.03 54.83 14.27 40.31 2.98 40.31 2.98 52.68 13.7l1.88 1.68m.02.02-.02-.02m.02.02-.02-.02m24.36-47.74c4.5-2.95 9.16-10.01 10.9-16.47.52-1.28.94-2.3 1.31-3.35 1.59-4.43 2.36-9.15 6.38-33.85 1.52-12.52 3.44-23.09 4.22-24.27l-.4-1.95-.78 1.18c-.78 1.17-3.5 7.83-6.2 14.5-7.75 21.93-12.4 34.07-20.97 47.01l-1.4 2.72c-4.67 9.06-5.83 11.32-4.2 14.71 1.77 3.71 6.85 3.7 11.14-.23ZM269.04 242.6c4.09-4.9 6.4-13.52 5.6-22.51-1.4-6.84-9.12-29.7-13.84-37.9-3.75-8.4-10.6-12.08-15.1-9.13-4.49 2.95-6.42 8.43-7.16 19.78-.9 20.54 3.27 41.06 8.78 48.08 6.68 7.8 14.9 8.16 21.72 1.68Zm-62.74-93.07c6.22-9.4 8.1-30.15 4.12-49.7-2.39-11.72-2.59-12.7-5.34-16.21-2.55-2.53-4.9-4.09-7.06-4.67-4.1-.18-4.1-.18-8.6 2.77-7.8 6.68-11.27 19.6-10.22 39.75.65 18.18 4.02 29.71 10.88 33.4 7.06 4.67 11.74 2.7 16.22-5.34Zm81.92-12.62c.78-1.18 3.11-4.7 3.5-7.84 1.15-4.3.75-6.26-1.24-16.03-5.57-27.37-21.1-48.63-33.81-46.04-8.8 1.8-10.92 11.39-6.55 27.8 5.54 17.2 14.4 35.74 21.67 41.39 7.06 4.67 11.16 4.85 16.43.72Z" shape-rendering="crispEdges"/>
  </g>
</svg>
