<svg xmlns="http://www.w3.org/2000/svg" width="50" height="43" fill="none" viewBox="0 0 50 43">
  <path stroke="currentcolor" stroke-width="1.25" d="M17.05 33.43c.22.2.51.46.74.62.83.6.98.52 2.1-1 .88-1.29 1.13-1.52 1.75-1.64.29-.05.4-.07.84.08.3.05.82.25 1.21.47.39.16.83.3 1.08.38.32.11.43.1.72.04.33-.13.49-.22 1.2-.77.73-.6.87-.64 1.22-.76l.05-.02c.73-.2 1.12.02 1.68.74.3.35.57.54.88.6.3.05.76-.04 1.14-.23.17-.03.63-.36.99-.66.98-.72 1.3-.9 1.8-1a2.9 2.9 0 0 1 1.74.43c.46.2.7.27.89.3.46-.03.74-.44 1.14-1.7a3.55 3.55 0 0 1 1.3-2.14c.66-.54.98-1.01 1.12-1.51.06-.3.04-.72-.1-.81l-.07-.05-.3.3a3.4 3.4 0 0 1-2.1 1c-.8.1-1.4.04-2.28-.2-1.13-.32-1.99-.8-4.21-2.55l-.14-.1.16.21c.68.76 1.04 1.4.88 1.48l-.05.07-.28-.24a5.4 5.4 0 0 1-1.33-1.69c-.27-.47-.97-1.93-1.32-2.8-.35-.94-.64-1.83-1.07-3.7-.55-2.24-.85-3.19-1.08-3.73a5.99 5.99 0 0 0-4.02-3.7 4.43 4.43 0 0 0-1.77-.01 5.38 5.38 0 0 0-3.8 2.92c-.64 1.24-.74 2.26-.55 4.47.3 2.71.3 3.36.07 5.47-.11.96-.26 1.7-.57 2.53-.42.9-.82 1.57-1.38 2.33-1.23 1.54-1.95 2.1-2.86 2.27-.63.12-1.06.03-1.93-.51-.52-.26-.77-.32-.98-.17-.19.22-.2.51-.15 1.04.12.92.63 1.7 1.3 2.16.75.5 1.5.71 3.18.86 2.34.2 2.34.2 3.05.82l.11.1m1.44-2.76c.26-.17.54-.58.64-.95l.08-.2c.1-.25.14-.52.39-1.96.1-.72.2-1.33.25-1.4l-.02-.12-.04.07c-.05.07-.21.46-.37.84a11.53 11.53 0 0 1-1.24 2.72l-.09.16c-.27.52-.34.65-.25.85.1.21.4.22.65-.01Zm5.97-8.12c.24-.28.38-.78.34-1.3-.08-.4-.52-1.73-.79-2.21-.2-.49-.6-.7-.87-.54-.26.17-.37.49-.42 1.15-.07 1.19.17 2.38.48 2.8.38.45.86.47 1.26.1Zm-3.6-5.44c.37-.54.5-1.74.27-2.88-.13-.68-.14-.74-.3-.94a.98.98 0 0 0-.4-.28c-.24 0-.24 0-.5.16-.46.38-.67 1.13-.62 2.3.03 1.06.22 1.73.61 1.95.41.27.68.16.95-.3Zm4.77-.68c.05-.07.18-.28.2-.46.08-.25.05-.36-.06-.93-.3-1.59-1.2-2.83-1.93-2.69-.52.1-.64.66-.4 1.61.31 1 .82 2.08 1.24 2.41.4.28.64.3.95.06Z" shape-rendering="crispEdges"/>
</svg>
