<svg xmlns="http://www.w3.org/2000/svg" width="267" height="244" fill="none" viewBox="0 0 267 244">
  <g opacity=".4">
    <path stroke="#fff" stroke-width="2.37" d="M194.2 203.7c-.5-1.46-.94-2.8-1.32-3.87-.46-1.34-.9-2.76-1.3-4.12-.7-2.26-1.35-4.39-2.02-5.8-3.71-8.8-12.56-11.96-20.26-7.85-5.45 3.04-8.49 6.32-13.94 18.1-9.67 18.36-16.34 26.58-25.35 30.85-7.7 4.1-18.08 3.52-25.03-1.46-5.85-4.58-8.38-7.97-14.27-19.43-5.33-11.25-7.15-13.15-13.59-16.07-3.87-1.38-6.63-2.36-14.97-3.47-10.19-1.14-11.3-1.54-17.93-3.9-8.1-3.52-11.02-5.8-17.38-12.44-4.19-3.99-6.52-7.94-10.08-15.44-3.04-5.45-6.91-15.56-6.52-16.67l.2-.55 2.53 3.4c7.43 8.88 19.08 11.17 30.33 5.84 12.76-6.05 26.14-24.34 43.59-59.26 13.97-28.68 21.67-41.51 31.98-54.67 11.05-13.5 26.1-22.48 41.58-25.68 37.48-7.2 69.63 17.99 74.54 58.4 1.62 11.17.96 25.27-3.5 60.46-4.69 37.6-5.4 53.56-1.6 67.38 2.06 8.22 5.26 14.97 9.8 19.7 3.4 3.55 4.59 4.13 8.63 6.09l.9.43 5.32 2.53-7.1 2.45c-22.63 7.5-32.27 6.56-42.27-3.86-2.72-2.84-3.99-4.54-7.38-10.74-1.1-3-2.46-7-3.6-10.35M149.34 89.53c2.05-.51 6.8-5.06 9.48-9.09 4.62-7.7 5.96-18.44 2.76-25.2-2.14-4.5-5.65-5.13-10.75-1.34-4.14 2.89-6.63 6.37-9.2 13.55-2.36 6.64-3.2 10.7-2 16.12 1.73 5.6 4.85 7.34 9.71 5.96Zm35.55 13.93c8.57-1.3 16.86-15.8 15.63-28.08-.75-8.38-3.83-11.97-9.44-10.23-4.5 2.13-9.83 8.34-12.4 15.53-3.15 8.84-2.6 17.77 1.59 21.76 2.01 1.34 2.01 1.34 4.62 1.02Z" shape-rendering="crispEdges"/>
  </g>
</svg>
