<svg xmlns="http://www.w3.org/2000/svg" width="135" height="32" fill="none" viewBox="0 0 135 32">
  <path fill="url(#ag)" fill-rule="evenodd" d="M1 .5C.6.9.4 1.5.4 2.2v27.6c0 .7.2 1.3.6 1.7v.1l15.5-15.4v-.4L1 .4 1 .5Z" clip-rule="evenodd"/>
  <path fill="url(#bg)" fill-rule="evenodd" d="m21.6 21.3-5.1-5.1v-.4l5-5.1h.2l6 3.5c1.8 1 1.8 2.6 0 3.6l-6 3.5h-.1Z" clip-rule="evenodd"/>
  <path fill="url(#cg)" fill-rule="evenodd" d="M21.7 21.3 16.5 16 1 31.5c.5.6 1.5.7 2.6 0l18.1-10.2Z" clip-rule="evenodd"/>
  <path fill="url(#dg)" fill-rule="evenodd" d="M21.7 10.7 3.6.4C2.5-.2 1.6 0 1 .4L16.5 16l5.2-5.3Z" clip-rule="evenodd"/>
  <path fill="#000" fill-rule="evenodd" d="m21.6 21.1-18 10.3c-1 .6-2 .5-2.5 0l-.1.1c.6.6 1.5.7 2.6 0l18.1-10.2-.1-.2Z" clip-rule="evenodd" opacity=".2"/>
  <path fill="#000" fill-rule="evenodd" d="M1 31.3c-.4-.4-.6-1-.6-1.7v.2c0 .7.2 1.3.6 1.7v-.2ZM27.8 17.6l-6.2 3.5.1.2 6-3.5c1-.5 1.4-1.1 1.4-1.8 0 .6-.5 1.2-1.3 1.6Z" clip-rule="evenodd" opacity=".1"/>
  <path fill="#fff" fill-rule="evenodd" d="m3.6.6 24.2 13.8c.8.4 1.2 1 1.3 1.6 0-.7-.4-1.3-1.3-1.8L3.6.4C1.8-.6.4.3.4 2.2v.2C.4.4 1.8-.4 3.6.6Z" clip-rule="evenodd" opacity=".3"/>
  <path fill="#fff" fill-rule="evenodd" stroke="#fff" stroke-width=".1" d="M46.6 4.5a3 3 0 0 1-.8 2.2c-.7.7-1.5 1-2.5 1s-1.8-.3-2.5-1-1-1.5-1-2.5.3-1.8 1-2.5 1.5-1 2.5-1c.5 0 1 0 1.4.2.4.2.8.5 1 .8l-.6.6c-.4-.5-1-.8-1.8-.8-.7 0-1.4.2-1.9.7-.5.5-.7 1.2-.7 2s.2 1.4.7 2c.5.4 1.2.7 1.9.7s1.4-.3 1.9-.8c.3-.3.5-.7.5-1.3h-2.4V4h3.2l.1.5ZM51.8 1.6h-3v2.2h2.7v.8h-2.8v2.1h3v.9h-3.9V.8h4v.8ZM55.4 7.6h-.8v-6h-2V.8h4.7v.8h-1.9v6ZM60.7 7.6V.8h.9v6.8h-.9ZM65.4 7.6h-.9v-6h-1.8V.8h4.6v.8h-1.9v6Z" clip-rule="evenodd"/>
  <path fill="#fff" fill-rule="evenodd" d="M73.6 7.7c1 0 1.8-.3 2.5-1s1-1.5 1-2.5A3.5 3.5 0 0 0 73.6.7c-1 0-1.8.3-2.5 1-.6.7-1 1.5-1 2.5a3.5 3.5 0 0 0 3.5 3.5Zm0-.8A2.7 2.7 0 0 1 71 4.2c0-.8.3-1.4.8-2 .5-.5 1-.7 1.8-.7.7 0 1.4.2 1.9.8.5.5.7 1.1.7 1.9 0 .8-.2 1.4-.7 2-.5.4-1.2.7-1.9.7Z" clip-rule="evenodd"/>
  <path fill="#fff" d="M76 6.7h.1Zm0-5h.1Zm-4.9 0Zm0 5Zm.7-.6Zm0-3.8Zm3.7 0Zm0 3.8Zm.5.6c-.6.6-1.4 1-2.4 1 1 0 1.9-.3 2.5-1Zm1-2.5c0 1-.3 1.8-1 2.5h.1c.7-.6 1-1.5 1-2.5Zm-1-2.5c.7.7 1 1.5 1 2.5h.2c0-1-.4-1.9-1-2.6l-.2.1Zm-2.4-1c1 0 1.8.4 2.4 1h.1C75.5.8 74.6.5 73.6.5v.1Zm-2.4 1c.6-.6 1.4-1 2.4-1V.6c-1 0-1.8.3-2.5 1v.1Zm-1 2.5c0-1 .3-1.8 1-2.5H71c-.7.6-1 1.5-1 2.5h.1Zm1 2.5c-.7-.7-1-1.5-1-2.5h-.1c0 1 .3 1.9 1 2.5Zm2.4 1c-1 0-1.8-.4-2.4-1H71c.7.7 1.5 1 2.5 1Zm-1.9-1.5c.5.5 1.2.8 2 .8v-.2c-.8 0-1.4-.2-1.9-.7Zm-.7-2c0 .8.2 1.5.7 2l.1-.1c-.5-.5-.7-1.1-.7-2H71Zm.7-2c-.5.5-.7 1.2-.7 2 0-.8.3-1.4.8-1.9Zm2-.8c-.8 0-1.5.3-2 .8l.1.1c.5-.5 1.1-.7 1.8-.7v-.2Zm1.8.8c-.5-.5-1.1-.8-1.9-.8v.2c.7 0 1.3.2 1.8.7h.1Zm.8 2c0-.8-.3-1.5-.8-2v.1c.4.5.6 1.1.6 1.9h.2Zm-.8 2c.5-.5.8-1.2.8-2H76c0 .8-.2 1.4-.7 1.9h.1Zm-1.9.8c.8 0 1.4-.3 1.9-.8V6c-.6.5-1.2.7-1.9.7V7Z"/>
  <path fill="#fff" fill-rule="evenodd" stroke="#fff" stroke-width=".1" d="M78.3 7.6V.8h1l3.3 5.3V.8h1v6.8h-1L79.2 2v5.5h-.9Z" clip-rule="evenodd"/>
  <path fill="#fff" fill-rule="evenodd" d="M47 19v2h4.8c-.1 1-.5 2-1 2.5A5 5 0 0 1 47 25c-3 0-5.4-2.4-5.4-5.4a5.3 5.3 0 0 1 9-4l1.5-1.4a7 7 0 0 0-5.1-2 7.5 7.5 0 0 0-7.6 7.4c0 4 3.5 7.4 7.6 7.4 2.2 0 3.8-.7 5.2-2a6.7 6.7 0 0 0 1.7-4.8l-.1-1.3H47Zm12.4-1.6c-2.6 0-4.8 2-4.8 4.8s2.2 4.8 4.8 4.8c2.7 0 4.8-2 4.8-4.8 0-2.7-2.1-4.8-4.8-4.8Zm5.7 4.8c0-2.7 2.2-4.8 4.8-4.8 2.7 0 4.8 2 4.8 4.8S72.6 27 70 27c-2.6 0-4.8-2-4.8-4.8Zm2.1 0c0 1.7 1.3 3 2.7 3 1.5 0 2.7-1.3 2.7-3s-1.2-2.9-2.7-2.9c-1.4 0-2.7 1.2-2.7 3Zm-10.5 0c0 1.7 1.3 3 2.7 3 1.5 0 2.7-1.3 2.7-3s-1.2-2.9-2.7-2.9c-1.4 0-2.7 1.2-2.7 3ZM94 17.4c2.5 0 3.7 2 4 3l.3.6-6.4 2.7c.5 1 1.3 1.4 2.3 1.4 1.1 0 1.8-.5 2.4-1.3L98 25c-.5.8-1.8 2.1-4 2.1a4.7 4.7 0 0 1-4.7-4.8c0-2.8 2-4.8 4.5-4.8Zm-2.4 4.7c-.1-1.9 1.4-2.8 2.5-2.8.8 0 1.5.4 1.7 1l-4.2 1.8Zm-3.1 4.6h-2.2v-14h2.2v14Zm-5.6-8.2c-.5-.5-1.4-1-2.6-1a4.8 4.8 0 0 0-4.6 4.8c0 2.6 2.2 4.7 4.6 4.7 1.2 0 2-.5 2.5-1h.1v.6c0 1.9-1 2.8-2.6 2.8-1.2 0-2-.9-2.4-1.7l-1.8.8c.5 1.3 2 2.8 4.2 2.8 2.5 0 4.6-1.4 4.6-5v-8.6h-2v.8Zm-5 3.8c0 1.6 1.1 2.8 2.6 2.8 1.4 0 2.5-1.2 2.5-2.8 0-1.7-1-3-2.5-3s-2.7 1.3-2.7 3Zm30-9.7h-5v14.1h2.1v-5.3h3c2.3 0 4.6-1.7 4.6-4.4s-2.3-4.4-4.7-4.4Zm-2.9 6.8h3c1.6 0 2.5-1.3 2.5-2.4 0-1-1-2.4-2.5-2.4h-3v4.8Zm16-2c-1.5 0-3.1.7-3.8 2.2l2 .8c.3-.8 1-1 1.8-1 1.1 0 2.2.6 2.2 1.7v.2c-.3-.2-1.2-.6-2.2-.6-2 0-4 1.1-4 3.2 0 1.9 1.6 3.1 3.5 3.1a3 3 0 0 0 2.7-1.4v1.1h2v-5.4c0-2.5-1.8-3.9-4.2-3.9Zm-2 6.5c0 .9 1 1.2 1.7 1.2 1.3 0 2.4-.9 2.5-2.2-.5-.3-1-.5-1.9-.5-1 0-2.2.5-2.2 1.5Zm13.7-6.2-2.5 6.1-2.5-6h-2.3l3.8 8.5-2.2 4.7h2.2l5.8-13.3h-2.3Zm-16.9 9h-2v-14h2v14Z" clip-rule="evenodd"/>
  <defs>
    <linearGradient id="ag" x1="9.7" x2="-14.9" y1="-18.3" y2="-11.7" gradientUnits="userSpaceOnUse">
      <stop stop-color="#00A0FF"/>
      <stop offset="0" stop-color="#00A1FF"/>
      <stop offset=".3" stop-color="#00BEFF"/>
      <stop offset=".5" stop-color="#00D2FF"/>
      <stop offset=".8" stop-color="#00DFFF"/>
      <stop offset="1" stop-color="#00E3FF"/>
    </linearGradient>
    <linearGradient id="bg" x1="30" x2="0" y1="3.3" y2="3.3" gradientUnits="userSpaceOnUse">
      <stop stop-color="#FFE000"/>
      <stop offset=".4" stop-color="#FFBD00"/>
      <stop offset=".8" stop-color="orange"/>
      <stop offset="1" stop-color="#FF9C00"/>
    </linearGradient>
    <linearGradient id="cg" x1=".5" x2="-19.3" y1="7.9" y2="41.3" gradientUnits="userSpaceOnUse">
      <stop stop-color="#FF3A44"/>
      <stop offset="1" stop-color="#C31162"/>
    </linearGradient>
    <linearGradient id="dg" x1="-11.1" x2="-2.3" y1="-3.8" y2="11.1" gradientUnits="userSpaceOnUse">
      <stop stop-color="#32A071"/>
      <stop offset=".1" stop-color="#2DA771"/>
      <stop offset=".5" stop-color="#15CF74"/>
      <stop offset=".8" stop-color="#06E775"/>
      <stop offset="1" stop-color="#00F076"/>
    </linearGradient>
  </defs>
</svg>
