<svg xmlns="http://www.w3.org/2000/svg" width="58" height="58" fill="none" viewBox="0 0 58 58">
  <path stroke="#fff" stroke-width=".47" d="M1.81 31.6c.02-.34.44-1.5 1.98-3.46 1.54-1.95 4.34-5.89 5.55-7.61 1.58-1.93 5.17-6.12 6.86-7.44.58-.45 1.06-.88 1.51-1.3 1.2-1.06 2.19-1.96 4.37-2.62 1.5-.45 2.8.57 4.06 1.55 1.03.8 1.76 1.46 3.04 1.46 1.27 0 2-.67 3.03-1.46 1.25-.98 2.57-2 4.06-1.55 2.18.66 3.18 1.56 4.37 2.63.45.4.93.84 1.5 1.3 1.7 1.3 5.3 5.5 6.87 7.43a219 219 0 0 0 5.55 7.6c1.55 1.96 1.96 3.13 1.98 3.47 0 1.37-.43 1.93-8.94 9.6-6.8 6.13-10.78 8-18.42 8-7.65 0-11.63-1.87-18.43-8-8.51-7.67-8.94-8.23-8.94-9.6Z" clip-rule="evenodd"/>
  <path fill="#fff" d="M44.19 29.05c.1 3.43-6.44 9.18-14.93 9.18-8.48 0-15.21-6.35-14.92-9.18.3-2.84 6.44-9.18 14.92-9.18 8.5 0 14.83 5.75 14.93 9.18Z"/>
  <path fill="#000" fill-rule="evenodd" d="M35.83 29.92c.03-.2-.17-.35-.36-.3a4.6 4.6 0 0 1-5.14-6.7c.1-.17 0-.4-.2-.42a6.6 6.6 0 1 0 5.7 7.42Z" clip-rule="evenodd"/>
</svg>
