<svg xmlns="http://www.w3.org/2000/svg" width="127" height="30" fill="none" viewBox="0 0 127 30">
  <path stroke="#fff" stroke-width=".3" d="M1.13 16.35c.01-.19.24-.83 1.08-1.9.84-1.06 2.38-3.21 3.04-4.15A37.63 37.63 0 0 1 9 6.23c.32-.25.58-.48.83-.7a5.5 5.5 0 0 1 2.38-1.44c.82-.25 1.54.3 2.22.84.57.44.97.8 1.66.8.7 0 1.1-.36 1.66-.8.69-.53 1.4-1.09 2.22-.84 1.2.36 1.74.85 2.4 1.43.24.23.5.46.82.71.92.72 2.89 3.01 3.75 4.07.66.94 2.2 3.09 3.04 4.16.84 1.06 1.07 1.7 1.08 1.89 0 .74-.24 1.05-4.89 5.25-3.72 3.35-5.9 4.37-10.08 4.37S9.74 24.95 6.02 21.6c-4.66-4.2-4.89-4.5-4.89-5.25Z" clip-rule="evenodd"/>
  <path fill="#fff" d="M24.3 14.95c.05 1.88-3.52 5.02-8.16 5.02-4.64 0-8.32-3.47-8.16-5.02.16-1.55 3.52-5.01 8.16-5.01 4.64 0 8.1 3.14 8.16 5.01Z"/>
  <path fill="#000" fill-rule="evenodd" d="M19.73 15.46c.02-.12-.1-.22-.23-.19a2.52 2.52 0 0 1-2.8-3.63c.07-.12 0-.26-.12-.27a3.61 3.61 0 1 0 3.14 4.1Z" clip-rule="evenodd"/>
  <path fill="#fff" d="M43.6 10.5V2.18h4.86v.42h-4.4v3.42h4.19v.42h-4.19v3.64h4.4v.42H43.6Zm6.95 0V2.18h2.58c2.52 0 3.97 1.5 3.97 4.15v.01c0 2.65-1.45 4.16-3.97 4.16h-2.58Zm.46-.42h2.1c2.25 0 3.52-1.34 3.52-3.73v-.01c0-2.4-1.27-3.74-3.52-3.74h-2.1v7.48Zm8 .42V2.18h4.85v.42h-4.4v3.42h4.2v.42h-4.2v3.64h4.4v.42h-4.85Zm6.95 0V2.18h.47l5.31 7.55h.03V2.18h.45v8.32h-.47l-5.32-7.56h-.02v7.56h-.45Zm11.11 0 3.18-8.32h.47l3.17 8.32h-.49l-1.04-2.77H78.6l-1.04 2.77h-.49Zm3.4-7.73-1.71 4.55h3.45l-1.72-4.55h-.01Zm5.08 7.73V2.18H86v8.32h-.45Zm-41.44 17V14.18h4.75c2.34 0 3.88 1.32 3.88 3.29v.02a3.03 3.03 0 0 1-2.5 3v.03c1.88.22 3.2 1.48 3.2 3.32v.01c0 2.27-1.64 3.65-4.6 3.65h-4.73Zm4.48-12.2h-3.22v4.8h2.87c2.02 0 3.23-.91 3.23-2.5v-.01c0-1.43-1.07-2.29-2.88-2.29Zm-.03 5.89h-3.19v5.2h3.3c2.3 0 3.47-.95 3.47-2.58v-.02c0-1.67-1.32-2.6-3.58-2.6ZM59.6 27.5v-5.76l-4.78-7.56h1.45l3.93 6.32h.06l3.93-6.32h1.45l-4.78 7.56v5.76h-1.26Zm12.95 0V14.18h8.04v1.15h-6.79v4.79h6.44v1.12H73.8v5.12h6.79v1.14h-8.04Zm14.92 0-4.98-13.32h1.34l4.25 11.78h.04l4.26-11.78h1.33L88.72 27.5h-1.26Zm5.87 0 5.02-13.32h1.24l5.01 13.32h-1.32l-1.49-4.08h-5.64l-1.48 4.08h-1.34Zm5.63-11.78-2.41 6.61h4.84l-2.4-6.6h-.03Zm11.52 11.78 5.02-13.32h1.25l5 13.32h-1.32l-1.49-4.08h-5.64l-1.48 4.08h-1.34Zm5.63-11.78-2.4 6.61h4.84l-2.41-6.6h-.03ZM124 27.5V14.18h1.25V27.5H124Z"/>
</svg>
