<svg xmlns="http://www.w3.org/2000/svg" width="147" height="147" fill="none">
  <path fill="#fff" fill-rule="evenodd" d="M35.7 110.8v35.3H.4v-35.3h35.3ZM60.8 141v5h-20v-10h10v5h5v-5h5v-5h-5v-5H71v10h-5v5h-5Zm5 0H71v5h-5v-5Zm50.4 0v5H91.1v-5h15v-10h-5v-5h-5v-5.1H86v-10h15v-10.2h5v-5h10.1v-5h5v5h5.1v-5h5v5h5v5h5.1v5h-10v10.1h-5.1v5h5v5.1h-10v5h5v5h5v-5h5v-15h10.1V141h-5v-5h-5v5h-10.1v5h-5v-5h-5Zm0 0h-5v-15h5v15Zm15.1-55.4v5h10.1v5.1h5v-5h-5v-5h-10Zm-5 0v5h-5v-5h5Zm0-5v5h5v-5h5v-10h5.1v10h5V55.4h-5v10.1h-20.1v-5h10v-5h5v-5.1h5.1v-5h5v-5h-5v5h-10v10h-5.1v-10h-10v-5h-5.1v5h5v5h-15v-5H96v-5H86V30.2h5v5h5v-5h-5v-5h10v15h5V5.1h-10V0h-5v5h5v5h5v5h-5v5h-5v-5h-5v-10H81v5h-5V.1h-5v10h-5.1v-5h-5V0H40.6v5h15.1v10h-5v-5h-5v5h5v10.1h-5v5h-5v10.1h5v5h5v5h-5v5.1h-5v5H20.5v-10h-5v-5h10v-5h-10v5h-5.1v-5H.5v5h10v5H.5v5h5v20.2h-5v5h5v-5h5v5h10v5H.6v20.2h15v-5h-5v-5h10v-5.1h5.1v10h5v5h10.1v5.1h5v5h10.1v5h5v-15h-5v-5h-5V85.5h10v-5h5v5H71v-5h-5v-5h5v-5h5v5h15.2v5h-5v5h5v5h5v5.1h-5v5H76v-5h5v-10h-5v10H65.9v-5h-10v5h10v20.1h5v5h5V141h5v-10h10.2v5h5v-5h-5v-5h-5v-5.1H81v-15.1h10v-5h10.1v-5h5V70.4h-20v-10h5v5h5v-5h5v5h10v5h5.1v5h5v5.1h-5v5h5v-5h5.1Zm0 0v-10h5v10h-5ZM96.1 60.5v-5h5v-5.1h-15v-10H81v20h5v-5h5v5h5Zm-25.2 55.3v-10h5v10h-5Zm25.2-35.2h-5v5h5v-5Zm0 0h5v-5h-5v5Zm-65.5 20.1v-5h5v5h-5Zm0-30.2h-5v-5h-5v5h-5v5h5v5.1h15v5h-5v5h10.1v-15h5v5h10.1v-5h5v-5h5v-5.1H76v-5h-5v-5h5V40.2H65.9v-5h5v-5h5v5h5v-5H86v-5h-5v-5.1h-5v-5h-5v10H60.7v5h-5v-5h-5v5h-5v5h5v10.2h10v25.1h-5v5h-5v-5h-10v-5H30.5v5Zm0 0v5h10.1v-5h-10ZM66 45.4v10h5v-10h-5Zm0 0h-5v-5h5v5ZM50.8 35.3h5v-5h-5v5Zm10-5v5h5v-5h-5Zm-15 25.1h5v-5h5v10h-10v-5Zm20-45.3v5h-5v-5h5Zm50.4 40.3h5v5h-5v-5Zm-65.4 70.5v10h-10v-10h10ZM35.7 50.4v5h-10v-5h10Zm0-10v5h-5v-5h5Zm0-40.4v35.3H.4V0h35.3Zm110.7 0v35.3h-35.2V0h35.2ZM5.4 115.8V141h25.2v-25.2H5.5Zm20.2 5V136H10.5v-15.1h15.1Zm80.6-15v15h15v-15h-15Zm10 5v5h-5v-5h5Zm-75.5-15v5h5v-5h-5ZM10.5 55.3v5h5v-5h-5Zm-5-50.3v25.2h25.1V5H5.5Zm20.1 5v15.1H10.5v-15h15.1Zm90.6-5v25.2h25.2V5h-25.2Zm20.2 5v15.1h-15.1v-15h15Z" clip-rule="evenodd"/>
</svg>
