<svg xmlns="http://www.w3.org/2000/svg" width="66" height="66" fill="none" viewBox="0 0 66 66">
  <g opacity=".8">
    <path fill="url(#a)" fill-rule="evenodd" d="M6.27 35.83c.01-.34.42-1.48 1.93-3.4 1.52-1.91 4.26-5.77 5.45-7.46 1.55-1.89 5.07-6 6.73-7.29.57-.44 1.04-.86 1.48-1.26 1.17-1.05 2.15-1.93 4.29-2.58 1.46-.44 2.75.56 3.98 1.52 1 .78 1.72 1.44 2.98 1.44 1.25 0 1.96-.66 2.97-1.44 1.23-.96 2.52-1.96 3.99-1.52a9.88 9.88 0 0 1 4.28 2.58c.44.4.91.82 1.48 1.26 1.66 1.3 5.18 5.4 6.74 7.3 1.18 1.68 3.92 5.54 5.44 7.45 1.51 1.92 1.92 3.06 1.93 3.4 0 1.33-.41 1.89-8.76 9.4-6.67 6-10.57 7.85-18.07 7.85s-11.4-1.84-18.08-7.85c-8.35-7.51-8.76-8.07-8.76-9.4Z" clip-rule="evenodd"/>
    <path fill="#fff" d="M47.94 33.4c.1 3.37-6.32 9-14.66 9-8.35 0-14.96-6.21-14.67-9 .3-2.77 6.32-9 14.67-9 8.34 0 14.57 5.64 14.66 9Z"/>
    <path fill="#000" fill-rule="evenodd" d="M39.76 35.25c.2-.7-.53-1.25-1.26-1.25a4.5 4.5 0 0 1-4.3-5.8c.16-.56-.13-1.2-.7-1.2a6.5 6.5 0 1 0 6.26 8.25Z" clip-rule="evenodd"/>
  </g>
  <defs>
    <linearGradient id="a" x1="33.11" x2="33.11" y1="13.74" y2="53.08" gradientUnits="userSpaceOnUse">
      <stop stop-color="#FF8EF9"/>
      <stop offset="1" stop-color="#3478F6"/>
    </linearGradient>
  </defs>
</svg>
