<svg version="1" xmlns="http://www.w3.org/2000/svg" width="666.667" height="666.667" viewBox="0 0 500.000000 500.000000"><path d="M204 1.1C164.6 3.8 101.5 13.6 92.1 18.5c-1.6.8-4 2.9-5.3 4.7-2.3 3.3-2.3 3.4-2.6 39.1-.3 40.4-.3 40.6 7.1 45.5l4.1 2.7h28c26.5 0 28.3-.1 31.6-2.1 1.9-1.1 4.5-3.5 5.7-5.4 2.2-3.2 2.3-4.1 2.3-25.6V55h-31v24h-17V45.2l5.3-1.2c18.5-3.9 57.7-9.1 84.2-11 18.2-1.3 73.1-1.3 91 0 27.5 2.1 65.6 7 84.3 11l5.2 1.2V79h-17V55h-32.2l.4 21.7c.4 23.6.9 25.9 6.4 30.2 4.8 3.8 9.4 4.3 36.3 3.9 24.3-.3 25.8-.4 29.1-2.5 2-1.2 4.6-4 5.8-6.2 2.3-4 2.3-4.3 2-39.8-.3-35.7-.3-35.8-2.6-39.1-3.2-4.5-6.3-5.8-19.7-8.7-27.4-5.9-67.9-11.4-100-13.5C275-.2 222.2-.1 204 1.1z"/><path d="M186 54.1c-6.5 2.6-11 11-11 20.6V79h150.3l-.5-6.4c-.7-8.2-3.9-14.3-9.3-17.3l-4-2.3-61.5.1c-38.3 0-62.4.4-64 1zM172.6 98.2c-.5 4.3-23.6 282.9-23.6 284.4 0 .2 4.2.4 9.4.4h9.4l.6-9.3c.5-7.1 13.6-277.2 13.6-280 0-.4-2-.7-4.4-.7h-4.5l-.5 5.2zM205.5 102.2c-.5 7.5-14.5 277.4-14.5 280 0 .5 6.1.8 13.5.8 10.1 0 13.5-.3 13.5-1.3 0-.6 1.1-64 2.5-140.7 1.4-76.7 2.5-141.4 2.5-143.8V93h-16.8l-.7 9.2zM244 93.2c-.1 4-6 284.3-6 286.5v3.3h40v-6.8c0-5.4-3.9-282.1-4-283 0-.1-6.7-.2-15-.2-8.2 0-15 .1-15 .2zM287 95.2c0 1.6 6.9 285.2 7 287.5 0 .4 57 .4 57 0 0-1.4-23.1-279.5-23.6-284l-.6-5.7H287v2.2zM133.6 401.2c-.3 2.4-.9 7.8-1.2 12l-.7 7.8H370v-2.3c0-2-1.1-9.7-2.5-18.5l-.6-3.2H134.2l-.6 4.2zM113 436.2c0 .7-.7 12.8-1.5 26.8s-1.5 27.9-1.5 30.7v5.3h282v-4.3c0-2.3-.9-16.4-2-31.2-1.1-14.9-2-27.3-2-27.8 0-.4-61.9-.7-137.5-.7-109.3 0-137.5.3-137.5 1.2z"/></svg>