<svg xmlns="http://www.w3.org/2000/svg" width="32" height="31" fill="none" viewBox="0 0 32 31">
  <g fill="currentColor" clip-path="url(#a-eye)">
    <path d="M10.43 13.64a.99.99 0 0 0-1.62.26 8.02 8.02 0 0 0 7.08 11.74 7.86 7.86 0 0 0 3.6-.9 1 1 0 0 0 .57-.75 1.01 1.01 0 0 0-.29-.89l-9.34-9.46ZM31.94 14.57a17.21 17.21 0 0 0-6.33-7.97 16.96 16.96 0 0 0-9.68-2.95c-3.75.07-5.95.72-8.58 2.5L1.53.27A.89.89 0 0 0 0 .9c0 .24.1.47.26.64L28.82 30.4a.88.88 0 0 0 .97.2.9.9 0 0 0 .28-1.47l-7.38-7.47a8 8 0 0 0 1.1-4c0-.43 0-1.1-.59-1.1-1 0-.45.76-2.38.76a4.48 4.48 0 0 1-4.3-2.8 4.6 4.6 0 0 1-.35-1.78c0-1.7.79-1.49.75-2.5 0-.36-.6-.61-1.08-.61-1.4 0-2.76.39-3.97 1.1L8.64 7.46c2.16-1.43 4.08-1.95 7.32-2h.31c3.04.03 6 .97 8.5 2.71a15.4 15.4 0 0 1 5.55 7.04.9.9 0 0 0 .83.58c.1 0 .21-.02.32-.06a.89.89 0 0 0 .47-1.16ZM3.97 8.5a17.54 17.54 0 0 0-3.9 6 .92.92 0 0 0 .5 1.18.88.88 0 0 0 1.16-.48c.78-2.06 2-3.94 3.55-5.5a.92.92 0 0 0 0-1.28.9.9 0 0 0-1.3.08Z"/>
  </g>
  <defs>
    <clipPath id="a-eye">
      <path fill="currentColor" d="M0 0h32v30.67H0z"/>
    </clipPath>
  </defs>
</svg>
