<svg width="72" height="48" fill="none"><g filter="url(#a)"><mask id="b" width="47.624" height="28.049" x="12.544" y="1.424" fill="#000" maskUnits="userSpaceOnUse"><path fill="#fff" d="M12.544 1.424h47.624v28.049H12.544z"/><path d="m22.509 19.561-3.048-.428.974-6.934-1.782-.25.373-2.657 1.782.25.048-.338c.278-1.978 1.503-2.933 3.642-2.633.695.098 1.266.306 1.684.564l-.338 2.407a2.748 2.748 0 0 0-.938-.314c-.517-.073-.95.03-1.012.476l-.038.267 2.353.331-.373 2.656-2.353-.33-.974 6.933Zm6.84-3.546-.621 4.42-3.048-.428 1.347-9.59 2.799.393-.238 1.694c.889-1.02 2.494-1.45 4.027-1.234l-.446 3.173c-2.127-.517-3.522-.55-3.82 1.572Zm7.942 5.787c-2.959-.416-4.657-2.69-4.238-5.667.403-2.87 2.764-4.665 5.616-4.264 3.173.446 4.93 3.329 3.934 6.406l-6.506-.914c-.01 1.235.476 1.92 1.456 2.058.856.12 1.476-.156 1.841-.813l3.048.428c-.896 2.11-2.762 3.102-5.15 2.766Zm.99-7.695c-.908-.128-1.516.314-1.88 1.354l3.208.45c.1-.967-.418-1.676-1.327-1.804Zm9.01 9.1c-2.958-.415-4.656-2.69-4.238-5.666.404-2.87 2.764-4.665 5.616-4.264 3.173.446 4.931 3.328 3.935 6.406l-6.506-.915c-.01 1.235.475 1.921 1.456 2.059.855.12 1.476-.156 1.84-.814l3.049.429c-.896 2.11-2.763 3.101-5.151 2.766Zm.991-7.694c-.909-.128-1.516.314-1.88 1.353l3.208.451c.1-.968-.419-1.677-1.328-1.804Z"/></mask><path fill="#fff" d="m22.509 19.561-3.048-.428.974-6.934-1.782-.25.373-2.657 1.782.25.048-.338c.278-1.978 1.503-2.933 3.642-2.633.695.098 1.266.306 1.684.564l-.338 2.407a2.748 2.748 0 0 0-.938-.314c-.517-.073-.95.03-1.012.476l-.038.267 2.353.331-.373 2.656-2.353-.33-.974 6.933Zm6.84-3.546-.621 4.42-3.048-.428 1.347-9.59 2.799.393-.238 1.694c.889-1.02 2.494-1.45 4.027-1.234l-.446 3.173c-2.127-.517-3.522-.55-3.82 1.572Zm7.942 5.787c-2.959-.416-4.657-2.69-4.238-5.667.403-2.87 2.764-4.665 5.616-4.264 3.173.446 4.93 3.329 3.934 6.406l-6.506-.914c-.01 1.235.476 1.92 1.456 2.058.856.12 1.476-.156 1.841-.813l3.048.428c-.896 2.11-2.762 3.102-5.15 2.766Zm.99-7.695c-.908-.128-1.516.314-1.88 1.354l3.208.45c.1-.967-.418-1.676-1.327-1.804Zm9.01 9.1c-2.958-.415-4.656-2.69-4.238-5.666.404-2.87 2.764-4.665 5.616-4.264 3.173.446 4.931 3.328 3.935 6.406l-6.506-.915c-.01 1.235.475 1.921 1.456 2.059.855.12 1.476-.156 1.84-.814l3.049.429c-.896 2.11-2.763 3.101-5.151 2.766Zm.991-7.694c-.909-.128-1.516.314-1.88 1.353l3.208.451c.1-.968-.419-1.677-1.328-1.804Z"/><path fill="#fff" fill-opacity=".1" d="m22.509 19.561-.522 3.713 3.713.522.522-3.713-3.713-.522Zm-3.048-.428-3.714-.522-.522 3.713 3.714.522.522-3.713Zm.974-6.934 3.714.522.521-3.714-3.713-.522-.522 3.714Zm-1.782-.25-3.714-.523-.522 3.714 3.714.522.522-3.714Zm.373-2.657.522-3.713-3.714-.522-.522 3.713 3.714.522Zm1.782.25-.522 3.714 3.714.522.522-3.713-3.714-.522Zm5.374-2.407 3.713.522.34-2.423-2.08-1.288-1.973 3.19Zm-.338 2.407L23.9 12.749l4.864 2.946.792-5.631-3.713-.522Zm-1.988.43-3.713-.523-.522 3.714 3.713.522.522-3.714Zm2.353.33 3.714.522.522-3.714-3.714-.522-.522 3.714Zm-.373 2.656-.522 3.713 3.714.522.521-3.713-3.713-.522Zm-2.353-.33.522-3.714-3.713-.522-.522 3.713 3.713.522Zm-.453 3.22-3.047-.429-1.044 7.427 3.048.428 1.044-7.427Zm.144 3.807.975-6.934-7.427-1.044-.975 6.934 7.427 1.044Zm-2.217-11.17-1.783-.25-1.043 7.427 1.782.25 1.044-7.427Zm1.41 3.985.372-2.656-7.427-1.043-.373 2.655 7.427 1.044Zm-3.863.536 1.782.25L21.33 5.83l-1.782-.25-1.044 7.427Zm6.018-2.941.047-.339-7.427-1.044-.047.339 7.427 1.044Zm.047-.339c.024-.168.05-.176.005-.09-.052.1-.168.267-.37.416-.2.147-.378.199-.452.213-.06.01 0-.011.224.02l1.044-7.427c-1.674-.235-3.613-.062-5.266 1.157-1.668 1.229-2.382 3.032-2.612 4.667l7.427 1.044Zm-.593.559c.127.018.21.041.254.056.045.016.033.017-.022-.017l3.947-6.378c-.932-.576-2.016-.93-3.135-1.088l-1.044 7.427Zm-1.508-3.672L22.13 9.02l7.427 1.044.338-2.407-7.427-1.044Zm5.318-.279c-.753-.456-1.642-.719-2.358-.82l-1.044 7.428a.872.872 0 0 1-.253-.071 1.997 1.997 0 0 1-.23-.122l3.885-6.415Zm-2.358-.82c-.534-.074-1.531-.149-2.593.277a4.262 4.262 0 0 0-2.655 3.391l7.427 1.044a3.207 3.207 0 0 1-.683 1.56c-.41.51-.899.806-1.3.967-.7.28-1.223.191-1.24.189l1.044-7.427ZM20.18 9.183l-.037.267 7.427 1.044.037-.267-7.427-1.044Zm3.154 4.503 2.353.33 1.044-7.427-2.353-.33-1.044 7.427Zm-.838-3.905-.373 2.656 7.426 1.044.374-2.656-7.427-1.044Zm3.862-.536-2.353-.33-1.044 7.427 2.353.33 1.044-7.427Zm-6.588 2.861-.975 6.934 7.427 1.044.975-6.934-7.427-1.044Zm8.958 8.33-.522 3.714 3.713.521.522-3.713-3.713-.522Zm-3.048-.428-3.714-.522-.522 3.713 3.714.522.522-3.713Zm1.347-9.59.522-3.714-3.713-.521-.522 3.713 3.713.522Zm2.799.393 3.713.522.522-3.713-3.713-.522-.522 3.713Zm-.238 1.694-3.714-.522-1.758 12.514 8.3-9.53-2.828-2.462Zm4.027-1.234 3.713.522.522-3.714-3.713-.521-.522 3.713Zm-.446 3.173-.886 3.644 4.023.978.576-4.1-3.713-.522Zm-7.534 1.05-.62 4.42 7.426 1.044.621-4.42-7.427-1.044Zm3.615 1.229-3.049-.429-1.043 7.427 3.048.429 1.044-7.427Zm.143 3.807 1.348-9.59-7.427-1.044-1.348 9.59 7.427 1.044Zm-2.887-6.399 2.798.394 1.044-7.427-2.799-.394-1.043 7.427Zm-.394-3.842-.238 1.694 7.427 1.043.238-1.693-7.427-1.044Zm6.304 4.679c-.118.134-.164.103.005.053.163-.048.406-.074.672-.037l1.044-7.426c-2.368-.333-5.41.225-7.377 2.484l5.656 4.926ZM29.9 10.748l-.446 3.173 7.427 1.044.446-3.173-7.427-1.044Zm4.154.051c-.954-.232-2.79-.673-4.543-.156a5.207 5.207 0 0 0-2.787 1.973c-.675.941-.964 1.98-1.09 2.877l7.427 1.043c.024-.164.021.084-.242.45a2.3 2.3 0 0 1-1.185.85c-.318.094-.472.05-.284.068.172.017.457.067.932.183l1.772-7.288Zm8.548 7.478-.522 3.714 3.12.438.97-2.997-3.568-1.155Zm-6.506-.914.522-3.714-4.237-.595-.035 4.279 3.75.03Zm3.297 1.245.522-3.714-2.55-.358-1.25 2.252 3.278 1.82Zm3.048.428 3.452 1.466 1.911-4.499-4.84-.68-.523 3.713Zm-6.041-3.575-3.539-1.24-1.513 4.317 4.53.636.522-3.713Zm3.208.45-.521 3.714 3.853.542.399-3.871-3.73-.384Zm-1.796 2.178c-.623-.088-.837-.315-.904-.405-.07-.094-.234-.378-.143-1.027l-7.427-1.044c-.327 2.328.149 4.67 1.563 6.561 1.416 1.895 3.531 3.013 5.867 3.342l1.044-7.427Zm-1.047-1.432c.073-.52.287-.774.445-.894.156-.118.442-.248.936-.178l1.044-7.427c-4.93-.693-9.164 2.561-9.852 7.455l7.427 1.044Zm1.38-1.072c.54.075.761.307.856.462.1.162.218.504.034 1.075l7.135 2.31c1.691-5.225-1.43-10.494-6.98-11.274l-1.044 7.427Zm4.98-1.021-6.507-.915-1.044 7.427 6.506.915 1.044-7.427Zm-10.779 2.769c-.008 1.051.18 2.414 1.045 3.636.946 1.337 2.323 1.981 3.64 2.166l1.043-7.427c.137.02.384.076.673.239.302.169.568.409.768.691.379.536.33.938.331.755l-7.5-.06Zm4.684 5.802c.934.131 2.043.088 3.145-.4a5.309 5.309 0 0 0 2.497-2.307l-6.558-3.64c.166-.298.5-.678 1.024-.91.486-.216.858-.181.936-.17l-1.044 7.427Zm1.841-.814 3.048.429 1.044-7.427-3.048-.429-1.044 7.427Zm.119-4.751c-.154.362-.297.44-.335.46-.056.03-.29.136-.843.059l-1.044 7.427c1.836.258 3.729.036 5.428-.874 1.716-.919 2.954-2.392 3.697-4.14L38.99 17.57Zm-.187-7.176c-1.205-.17-2.61.008-3.861.911-1.158.836-1.756 1.988-2.081 2.915l7.078 2.48c.04-.111-.073.3-.609.687-.629.454-1.276.475-1.571.434l1.044-7.427Zm-2.925 8.78 3.209.451 1.043-7.427-3.208-.45-1.044 7.426Zm7.46-2.878c.128-1.236-.116-2.628-.993-3.822-.894-1.217-2.202-1.892-3.542-2.08L37.76 17.82a2.246 2.246 0 0 1-1.458-.907c-.416-.565-.45-1.118-.423-1.387l7.46.769Zm9.265 3.387-.522 3.713 3.12.439.97-2.998-3.568-1.154Zm-6.506-.915.522-3.713-4.237-.596-.035 4.28 3.75.03Zm3.297 1.245.522-3.713-2.55-.359-1.25 2.252 3.278 1.82Zm3.048.429 3.451 1.466 1.912-4.5-4.841-.68-.522 3.714Zm-6.041-3.576-3.54-1.24-1.512 4.317 4.53.637.522-3.714Zm3.208.451-.522 3.713 3.854.542.398-3.87-3.73-.385Zm-1.796 2.177c-.623-.087-.837-.314-.904-.405-.07-.093-.234-.378-.143-1.026l-7.427-1.044c-.327 2.328.148 4.669 1.563 6.56 1.416 1.896 3.53 3.014 5.867 3.342l1.044-7.427Zm-1.047-1.431c.073-.52.286-.775.444-.894.156-.119.443-.248.936-.179l1.044-7.427c-4.93-.693-9.163 2.562-9.851 7.456l7.427 1.044Zm1.38-1.073c.539.076.76.308.856.462.099.162.218.505.033 1.076l7.136 2.31c1.691-5.226-1.43-10.495-6.98-11.275l-1.045 7.427Zm4.979-1.02-6.506-.915-1.044 7.427 6.506.914 1.044-7.427Zm-10.778 2.768c-.008 1.052.18 2.414 1.045 3.636.946 1.338 2.323 1.982 3.639 2.167l1.044-7.428c.136.02.384.076.673.239.301.17.567.41.767.692.38.536.33.938.332.755l-7.5-.06Zm4.684 5.803c.933.13 2.043.087 3.145-.4a5.31 5.31 0 0 0 2.496-2.307l-6.557-3.64c.166-.299.5-.679 1.024-.911.486-.215.858-.18.936-.17l-1.044 7.428Zm1.841-.814 3.048.428 1.044-7.427-3.048-.428-1.044 7.427Zm.119-4.752c-.154.362-.297.44-.335.46-.056.03-.29.137-.843.06L46.77 26.92c1.835.258 3.728.036 5.427-.873 1.716-.92 2.955-2.392 3.697-4.14l-6.902-2.933Zm-.188-7.176c-1.204-.17-2.61.009-3.86.912-1.159.835-1.756 1.988-2.081 2.915l7.078 2.48c.039-.112-.073.3-.61.687-.628.454-1.275.475-1.57.433l1.043-7.427Zm-2.924 8.78 3.208.451 1.044-7.427-3.208-.45-1.044 7.427Zm7.46-2.878c.128-1.236-.116-2.627-.993-3.821-.895-1.218-2.203-1.893-3.543-2.08l-1.044 7.426a2.246 2.246 0 0 1-1.458-.906c-.415-.566-.45-1.119-.422-1.387l7.46.768Z" mask="url(#b)"/><mask id="c" width="31.64" height="24.832" x="19.971" y="20.63" fill="#000" maskUnits="userSpaceOnUse"><path fill="#fff" d="M19.971 20.63h31.64v24.832h-31.64z"/><path d="M28.215 37.975c-1.77-.249-2.846-1.394-2.709-2.889l1.973.277c-.009.58.316.941.946 1.03.76.107 1.21-.242 1.318-1.014l.105-.75c-.4.43-1.046.63-1.735.533-1.556-.22-2.58-1.732-2.334-3.48.253-1.805 1.55-2.932 3.12-2.711.808.113 1.357.433 1.768 1.036l.092-.654 1.866.263-.847 6.024c-.242 1.723-1.603 2.61-3.563 2.335Zm-.382-5.991c-.112.796.256 1.369.945 1.465.713.1 1.264-.367 1.374-1.152.112-.796-.29-1.385-1.003-1.486-.69-.096-1.203.365-1.316 1.173Zm8.401-3.376c-.093.665-.697 1.078-1.47.969-.772-.109-1.238-.67-1.144-1.336.095-.678.698-1.09 1.47-.981.773.108 1.24.67 1.144 1.348Zm-1.38 7.84-2.032-.285.898-6.394 2.032.286-.899 6.393Zm3.745.527-2.032-.286.65-4.623-1.189-.167.25-1.77 1.188.167.031-.226c.186-1.319 1.002-1.956 2.428-1.755.464.065.844.203 1.123.376l-.226 1.604a1.833 1.833 0 0 0-.625-.209c-.344-.048-.633.02-.674.317l-.025.178 1.568.22-.249 1.771-1.568-.22-.65 4.623Zm6.963-1.058-.249 1.771c-.486.186-.928.221-1.498.14-1.438-.201-2.161-1.175-1.956-2.637l.34-2.424-1.188-.167.25-1.77 1.188.166.264-1.877 2.032.285-.264 1.878 1.746.245-.248 1.77-1.747-.245-.274 1.95c-.087.617.135.94.693 1.018.333.046.665.008.911-.103Z"/></mask><path fill="#fff" d="M28.215 37.975c-1.77-.249-2.846-1.394-2.709-2.889l1.973.277c-.009.58.316.941.946 1.03.76.107 1.21-.242 1.318-1.014l.105-.75c-.4.43-1.046.63-1.735.533-1.556-.22-2.58-1.732-2.334-3.48.253-1.805 1.55-2.932 3.12-2.711.808.113 1.357.433 1.768 1.036l.092-.654 1.866.263-.847 6.024c-.242 1.723-1.603 2.61-3.563 2.335Zm-.382-5.991c-.112.796.256 1.369.945 1.465.713.1 1.264-.367 1.374-1.152.112-.796-.29-1.385-1.003-1.486-.69-.096-1.203.365-1.316 1.173Zm8.401-3.376c-.093.665-.697 1.078-1.47.969-.772-.109-1.238-.67-1.144-1.336.095-.678.698-1.09 1.47-.981.773.108 1.24.67 1.144 1.348Zm-1.38 7.84-2.032-.285.898-6.394 2.032.286-.899 6.393Zm3.745.527-2.032-.286.65-4.623-1.189-.167.25-1.77 1.188.167.031-.226c.186-1.319 1.002-1.956 2.428-1.755.464.065.844.203 1.123.376l-.226 1.604a1.833 1.833 0 0 0-.625-.209c-.344-.048-.633.02-.674.317l-.025.178 1.568.22-.249 1.771-1.568-.22-.65 4.623Zm6.963-1.058-.249 1.771c-.486.186-.928.221-1.498.14-1.438-.201-2.161-1.175-1.956-2.637l.34-2.424-1.188-.167.25-1.77 1.188.166.264-1.877 2.032.285-.264 1.878 1.746.245-.248 1.77-1.747-.245-.274 1.95c-.087.617.135.94.693 1.018.333.046.665.008.911-.103Z"/><path fill="#fff" fill-opacity=".1" d="m25.506 35.086.522-3.713-3.896-.548-.36 3.918 3.734.343Zm1.973.277 3.75.058.05-3.31-3.278-.461-.522 3.713Zm2.37-.733 3.713.522 1.655-11.78-8.112 8.7 2.743 2.558Zm.819-4.623-3.097 2.115 5.462 7.996 1.348-9.59-3.713-.521Zm.091-.654.522-3.713-3.713-.522-.522 3.713 3.713.522Zm1.866.263 3.714.521.521-3.713-3.713-.522-.522 3.714Zm-3.888 4.646c-.224-.032-.086-.073.143.17.116.124.225.293.294.496.069.203.078.38.067.501l-7.469-.686c-.165 1.795.418 3.52 1.638 4.82 1.175 1.253 2.736 1.908 4.283 2.126l1.044-7.427ZM24.985 38.8l1.972.277 1.044-7.427-1.973-.277-1.043 7.427Zm-1.255-3.494c-.016 1.02.273 2.256 1.215 3.287.911.997 2.057 1.387 2.958 1.513l1.044-7.427c.271.039.94.203 1.533.854.624.682.755 1.447.749 1.888l-7.5-.115Zm4.173 4.8c1.01.142 2.443.061 3.716-.922 1.257-.97 1.7-2.31 1.837-3.284l-7.427-1.043c.029-.2.193-.981 1.009-1.61.831-.642 1.659-.603 1.909-.568l-1.044 7.427Zm5.553-4.206.106-.748-7.427-1.044-.106.749 7.427 1.043Zm-6.35-3.827c.59-.634 1.252-.664 1.53-.625l-1.045 7.427c1.656.233 3.61-.197 5-1.688l-5.486-5.114Zm1.53-.625c.34.048.609.251.746.454.127.19.108.316.11.303l-7.427-1.044c-.48 3.412 1.553 7.156 5.526 7.714l1.044-7.427Zm.856.757c.02-.147.043-.007-.187.192a1.227 1.227 0 0 1-.928.287l1.043-7.427c-4.09-.575-6.884 2.551-7.355 5.904l7.427 1.044Zm-1.115.48c.039.005-.114-.012-.339-.143a1.492 1.492 0 0 1-.467-.42l6.193-4.23c-1.086-1.59-2.637-2.395-4.344-2.635l-1.043 7.427Zm6.004-2.156.092-.654-7.427-1.044-.092.654 7.427 1.044Zm-4.143 2.538 1.865.262 1.044-7.427-1.866-.262-1.043 7.427Zm-1.326-3.973-.847 6.024 7.427 1.044.847-6.024-7.427-1.044Zm-.847 6.024c0-.006.018-.116.112-.273a1.34 1.34 0 0 1 .41-.426c.34-.222.49-.11.15-.157l-1.044 7.427c1.62.227 3.43.034 5.001-.994 1.637-1.07 2.547-2.747 2.798-4.533l-7.427-1.044Zm-3.946-3.656c-.148 1.057-.03 2.36.733 3.547.806 1.252 2.078 1.968 3.404 2.154l1.044-7.427c.637.09 1.38.47 1.858 1.212.436.677.425 1.297.388 1.558l-7.427-1.044Zm4.137 5.701a4.885 4.885 0 0 0 3.85-1.09c1.072-.901 1.6-2.12 1.76-3.254l-7.428-1.044c.05-.349.247-.941.838-1.439a2.617 2.617 0 0 1 2.024-.6l-1.044 7.427Zm5.61-4.344c.158-1.128-.007-2.454-.8-3.627-.821-1.213-2.081-1.91-3.395-2.094l-1.044 7.427a2.616 2.616 0 0 1-1.773-1.13c-.443-.654-.462-1.287-.416-1.62l7.427 1.044Zm-4.195-5.721c-1.357-.19-2.784.172-3.894 1.163-1.046.935-1.51 2.151-1.658 3.2l7.427 1.045c-.034.241-.184.823-.773 1.35a2.702 2.702 0 0 1-2.146.669l1.044-7.427Zm5.182 9.35-.521 3.714 3.713.522.522-3.714-3.714-.522Zm-2.032-.285-3.713-.522-.522 3.713 3.714.522.522-3.713Zm.899-6.394.522-3.713-3.714-.522-.521 3.713 3.713.522Zm2.032.286 3.713.522.522-3.714-3.713-.521-.522 3.713Zm-3.231-1.969c.1-.718.515-1.398 1.154-1.824.61-.407 1.22-.454 1.612-.399l-1.044 7.428c2.406.338 5.267-1.05 5.705-4.161l-7.427-1.044Zm2.766-2.223c.392.056.965.269 1.44.828.496.585.707 1.353.606 2.072l-7.427-1.044c-.437 3.11 1.931 5.233 4.337 5.572l1.044-7.427Zm2.046 2.9a2.641 2.641 0 0 1-1.141 1.806c-.615.413-1.23.46-1.623.404l1.043-7.427c-1.164-.163-2.468.035-3.602.796a4.86 4.86 0 0 0-2.104 3.377l7.427 1.043Zm-2.764 2.21c-.393-.055-.972-.27-1.45-.836a2.64 2.64 0 0 1-.598-2.05l7.427 1.043a4.86 4.86 0 0 0-1.093-3.826c-.88-1.044-2.078-1.594-3.242-1.758l-1.044 7.427Zm.806 1.762-2.032-.286-1.043 7.427 2.032.286 1.043-7.427Zm1.16 3.95.899-6.394-7.427-1.044-.899 6.394 7.427 1.044Zm-3.337-3.202 2.032.286 1.044-7.427-2.032-.286-1.044 7.427Zm-1.16-3.95-.898 6.393 7.427 1.044.898-6.393-7.427-1.044Zm6.561 7.442-.522 3.713 3.714.522.522-3.714-3.714-.521Zm-2.032-.286-3.713-.522-.522 3.714 3.713.522.522-3.714Zm.65-4.623 3.713.522.522-3.713-3.713-.522-.522 3.713Zm-1.189-.167-3.713-.521-.522 3.713 3.714.522.521-3.714Zm.25-1.77.521-3.714-3.713-.522-.522 3.714 3.713.522Zm1.188.167-.522 3.713 3.713.522.522-3.713-3.713-.522Zm3.582-1.605 3.713.522.34-2.424-2.08-1.287-1.973 3.189Zm-.226 1.604-1.942 3.208 4.864 2.946.792-5.632-3.714-.522Zm-1.324.286-3.714-.521-.522 3.713 3.714.522.522-3.714Zm1.568.22 3.714.523.522-3.714-3.714-.522-.522 3.714Zm-.249 1.771-.522 3.714 3.714.522.522-3.714-3.714-.522Zm-1.568-.22.522-3.713-3.714-.522-.522 3.713 3.714.522Zm-.128.91-2.032-.287-1.044 7.428 2.032.285 1.044-7.427Zm1.16 3.949.65-4.623-7.428-1.043-.65 4.622 7.428 1.044Zm-2.542-8.858-1.189-.167-1.043 7.427 1.188.167 1.044-7.427Zm2.003 4.068.249-1.77-7.427-1.044-.25 1.77 7.428 1.044Zm-3.987 1.421 1.189.167 1.043-7.427-1.188-.167-1.044 7.427Zm5.424-3.024.032-.226-7.427-1.044-.032.226 7.427 1.044Zm.032-.226c0 .001-.005.034-.022.09a1.463 1.463 0 0 1-.102.249 2.088 2.088 0 0 1-.616.71c-.64.472-1.177.372-1.068.387l1.044-7.427c-1.317-.185-2.976-.066-4.426 1.003-1.465 1.08-2.054 2.639-2.237 3.944l7.427 1.044Zm-1.808 1.436c.011.002-.01 0-.061-.017a1.34 1.34 0 0 1-.267-.131l3.946-6.378c-.793-.49-1.686-.776-2.574-.9l-1.044 7.426Zm-2.069-3.86-.225 1.605 7.427 1.044.225-1.604-7.427-1.044Zm5.43-1.08a5.557 5.557 0 0 0-2.045-.716L39.675 33.8a1.82 1.82 0 0 1-.498-.142 2.586 2.586 0 0 1-.297-.155l3.885-6.416Zm-2.045-.716c-.448-.063-1.366-.14-2.367.262a4.09 4.09 0 0 0-2.543 3.247l7.427 1.044a3.388 3.388 0 0 1-.72 1.652c-.43.532-.944.846-1.375 1.02-.76.304-1.362.217-1.465.203l1.043-7.427Zm-4.91 3.51-.025.177 7.427 1.044.025-.178-7.427-1.044Zm3.167 4.413 1.568.22 1.044-7.427-1.569-.22-1.043 7.427Zm-1.623-4.015-.25 1.77 7.428 1.044.249-1.77-7.427-1.044Zm3.986-1.421-1.568-.22-1.044 7.427 1.569.22 1.043-7.427Zm-5.804 2.971-.65 4.623 7.428 1.043.65-4.622-7.428-1.044Zm10.027 4.087 3.714.522.946-6.737-6.202 2.797 1.542 3.418Zm-.249 1.771 1.34 3.503 2.066-.79.308-2.191-3.714-.522ZM42.2 32.767l3.713.522.522-3.714-3.713-.522-.522 3.714ZM41.01 32.6l-3.713-.522-.522 3.713 3.714.522.521-3.713Zm.25-1.77.521-3.714-3.713-.522-.522 3.713 3.713.522Zm1.188.166-.522 3.714 3.713.522.522-3.714-3.713-.522Zm.264-1.877.521-3.714-3.713-.522-.522 3.714 3.713.522Zm2.032.285 3.713.522.522-3.713-3.713-.522-.522 3.713Zm-.264 1.878-3.714-.522-.522 3.713 3.714.522.522-3.713Zm1.746.245 3.714.522.522-3.713-3.714-.522-.522 3.713Zm-.248 1.77-.522 3.714 3.713.522.522-3.713-3.713-.522Zm-1.747-.245.522-3.713-3.714-.522-.522 3.714 3.714.521Zm-2.383 2.343-.25 1.771 7.428 1.044.249-1.77-7.428-1.044Zm2.125-1.21a1.214 1.214 0 0 1 .283-.062c.114-.01.158.003.08-.008l-1.044 7.427c1.08.152 2.177.1 3.36-.351l-2.68-7.006Zm.363-.07c.02.003.494.091.896.633.395.533.336.989.34.965l-7.427-1.044c-.202 1.438-.002 3.111 1.063 4.547 1.072 1.445 2.627 2.121 4.084 2.326l1.044-7.427Zm1.236 1.598.34-2.424-7.427-1.044-.34 2.424 7.427 1.044Zm-2.851-6.66-1.189-.167-1.043 7.427 1.188.167 1.044-7.427Zm2.003 4.069.249-1.77-7.427-1.045-.249 1.77 7.427 1.045Zm-3.987 1.42 1.189.168 1.044-7.427-1.189-.167-1.044 7.427Zm5.424-3.024.264-1.878-7.427-1.043-.264 1.877 7.427 1.044Zm-3.971 1.314 2.032.286 1.044-7.427-2.033-.286-1.043 7.427Zm-1.16-3.95-.264 1.878 7.427 1.044.264-1.878-7.427-1.044Zm2.928 6.113 1.747.246 1.043-7.427-1.746-.246-1.044 7.427Zm-1.445-3.99-.249 1.771 7.427 1.044.249-1.77-7.427-1.045Zm3.987-1.42-1.747-.246-1.044 7.427 1.747.245 1.044-7.427Zm-5.983 2.946-.274 1.948 7.428 1.044.273-1.949-7.427-1.043Zm-.274 1.948c-.103.736-.147 2.075.72 3.347.926 1.356 2.291 1.784 3.165 1.907l1.044-7.427c.315.044 1.29.272 1.987 1.293.64.937.528 1.806.512 1.924l-7.428-1.044Zm3.885 5.254c.874.123 1.95.065 2.975-.397l-3.084-6.837c.294-.133.54-.18.699-.198.167-.019.317-.014.454.005l-1.044 7.427Z" mask="url(#c)"/></g><defs><filter id="a" width="127" height="103" x="-27.5" y="-27.5" color-interpolation-filters="sRGB" filterUnits="userSpaceOnUse"><feFlood flood-opacity="0" result="BackgroundImageFix"/><feGaussianBlur in="BackgroundImageFix" stdDeviation="13.75"/><feComposite in2="SourceAlpha" operator="in" result="effect1_backgroundBlur_4745_2543"/><feBlend in="SourceGraphic" in2="effect1_backgroundBlur_4745_2543" result="shape"/></filter></defs></svg>