<svg width="50" height="42" fill="none"><mask id="a" width="59.475" height="43.304" x="-5.225" y="2.814" fill="#000" maskUnits="userSpaceOnUse"><path fill="#fff" d="M-5.225 2.814H54.25v43.304H-5.225z"/><path d="M8.179 34.569c-3.837-.54-6.166-3.02-5.868-6.26l4.274.601c-.02 1.258.684 2.04 2.049 2.231 1.648.232 2.62-.524 2.856-2.198l.228-1.622c-.866.929-2.266 1.362-3.76 1.152-3.372-.474-5.59-3.752-5.057-7.537.55-3.914 3.36-6.354 6.76-5.877 1.75.246 2.94.939 3.832 2.246l.199-1.416 4.042.568L15.9 29.51c-.525 3.734-3.473 5.656-7.721 5.059ZM7.35 21.587c-.242 1.726.555 2.967 2.048 3.176 1.545.217 2.738-.796 2.976-2.496.243-1.725-.628-3.002-2.173-3.22-1.493-.21-2.605.79-2.85 2.54Zm18.203-7.313c-.203 1.442-1.51 2.334-3.183 2.1-1.674-.236-2.684-1.455-2.481-2.896.206-1.468 1.513-2.36 3.186-2.126 1.674.236 2.684 1.454 2.478 2.922ZM22.563 31.26l-4.403-.62 1.947-13.851 4.402.619-1.946 13.852Zm8.115 1.14-4.403-.619 1.408-10.015-2.575-.362.54-3.836 2.574.362.069-.49c.402-2.857 2.17-4.237 5.26-3.802 1.005.14 1.829.44 2.433.814l-.489 3.476c-.339-.205-.89-.388-1.354-.453-.747-.105-1.371.044-1.462.687l-.054.386 3.398.478-.539 3.836-3.398-.477L30.678 32.4Zm15.086-2.29-.539 3.836c-1.054.403-2.01.479-3.246.305-3.115-.438-4.683-2.549-4.237-5.715l.738-5.253-2.575-.362.54-3.836 2.574.362.572-4.068 4.402.619-.572 4.068 3.785.532-.539 3.836-3.785-.532-.593 4.223c-.188 1.338.291 2.036 1.502 2.206.72.101 1.44.019 1.974-.222Z"/></mask><path fill="#fff" d="M8.179 34.569c-3.837-.54-6.166-3.02-5.868-6.26l4.274.601c-.02 1.258.684 2.04 2.049 2.231 1.648.232 2.62-.524 2.856-2.198l.228-1.622c-.866.929-2.266 1.362-3.76 1.152-3.372-.474-5.59-3.752-5.057-7.537.55-3.914 3.36-6.354 6.76-5.877 1.75.246 2.94.939 3.832 2.246l.199-1.416 4.042.568L15.9 29.51c-.525 3.734-3.473 5.656-7.721 5.059ZM7.35 21.587c-.242 1.726.555 2.967 2.048 3.176 1.545.217 2.738-.796 2.976-2.496.243-1.725-.628-3.002-2.173-3.22-1.493-.21-2.605.79-2.85 2.54Zm18.203-7.313c-.203 1.442-1.51 2.334-3.183 2.1-1.674-.236-2.684-1.455-2.481-2.896.206-1.468 1.513-2.36 3.186-2.126 1.674.236 2.684 1.454 2.478 2.922ZM22.563 31.26l-4.403-.62 1.947-13.851 4.402.619-1.946 13.852Zm8.115 1.14-4.403-.619 1.408-10.015-2.575-.362.54-3.836 2.574.362.069-.49c.402-2.857 2.17-4.237 5.26-3.802 1.005.14 1.829.44 2.433.814l-.489 3.476c-.339-.205-.89-.388-1.354-.453-.747-.105-1.371.044-1.462.687l-.054.386 3.398.478-.539 3.836-3.398-.477L30.678 32.4Zm15.086-2.29-.539 3.836c-1.054.403-2.01.479-3.246.305-3.115-.438-4.683-2.549-4.237-5.715l.738-5.253-2.575-.362.54-3.836 2.574.362.572-4.068 4.402.619-.572 4.068 3.785.532-.539 3.836-3.785-.532-.593 4.223c-.188 1.338.291 2.036 1.502 2.206.72.101 1.44.019 1.974-.222Z"/><path fill="#fff" fill-opacity=".1" d="m2.31 28.31.696-4.952-5.194-.73-.48 5.224 4.979.457Zm4.275.6 4.999.076.067-4.413-4.37-.614-.696 4.951Zm5.133-1.589 4.951.696 2.208-15.708L8.06 23.912l3.658 3.409Zm1.775-10.016-4.129 2.82 7.283 10.662L18.444 18l-4.951-.695Zm.199-1.416.696-4.952-4.951-.696-.696 4.952 4.951.696Zm4.042.568 4.952.695.695-4.95-4.95-.697-.697 4.952Zm-8.86 13.16c-1.036-.145-1.444-.49-1.533-.585a.3.3 0 0 1-.044-.06.218.218 0 0 1-.009-.045.794.794 0 0 1 .002-.16l-9.958-.915c-.278 3.017.695 5.866 2.715 8.02 1.96 2.09 4.636 3.255 7.436 3.648l1.391-9.902Zm-7.26 3.644 4.275.6L7.28 23.96l-4.274-.6-1.391 9.902Zm-.029-4.427c-.024 1.602.427 3.446 1.815 4.965 1.348 1.475 3.074 2.088 4.538 2.293L9.33 26.19c.1.014.791.14 1.451.862.7.765.808 1.59.803 1.934l-9.999-.152Zm6.353 7.258c1.665.234 3.826.075 5.708-1.377 1.86-1.435 2.567-3.457 2.795-5.076l-9.903-1.392.002-.007.004-.021a2.014 2.014 0 0 1 .153-.415c.147-.297.412-.675.84-1.006.925-.714 1.776-.61 1.793-.608l-1.392 9.902Zm8.503-6.453.228-1.622-9.903-1.392-.228 1.622 9.903 1.392Zm-8.38-5.727c.224-.241.441-.336.544-.367.101-.032.12-.013.05-.023l-1.392 9.902c2.782.391 5.926-.349 8.112-2.694L8.06 23.912Zm.594-.39c-.195-.028-.373-.118-.54-.367-.181-.268-.368-.778-.263-1.523l-9.903-1.392c-.844 6.006 2.72 12.258 9.314 13.184l1.392-9.902Zm-.803-1.89c.133-.949.486-1.373.64-1.507a.479.479 0 0 1 .18-.106.683.683 0 0 1 .292-.008l1.392-9.903c-6.76-.95-11.567 4.156-12.407 10.132l9.903 1.392Zm1.112-1.621c.39.054.468.123.41.089a.367.367 0 0 1-.064-.047c-.012-.012.008.004.054.072l8.258-5.64c-1.791-2.623-4.317-3.963-7.266-4.377l-1.392 9.903Zm9.48-2.01.2-1.417-9.903-1.391-.2 1.416L18.445 18Zm-5.448 2.839 4.042.568 1.392-9.903-4.042-.568-1.392 9.903Zm-.213-5.08-1.835 13.054 9.903 1.392 1.835-13.053-9.903-1.392Zm-1.835 13.054c-.049.35-.134.52-.169.578a.23.23 0 0 1-.081.088c-.06.04-.552.316-1.824.138L7.483 39.52c2.976.419 6.083.033 8.69-1.673 2.695-1.763 4.243-4.541 4.678-7.64l-9.903-1.393ZM2.4 20.892c-.245 1.741-.035 3.765 1.12 5.56 1.212 1.88 3.127 2.974 5.183 3.263l1.392-9.903c.563.08 1.332.447 1.833 1.224.444.69.377 1.231.374 1.247L2.4 20.892Zm6.303 8.823c2.084.293 4.216-.243 5.894-1.656 1.63-1.372 2.471-3.257 2.73-5.096l-9.903-1.392c.02-.139.146-.668.733-1.162.636-.536 1.4-.673 1.938-.597l-1.392 9.903Zm8.624-6.752c.258-1.836-.022-3.893-1.227-5.673-1.24-1.833-3.152-2.906-5.202-3.194L9.507 24c-.505-.071-1.21-.396-1.689-1.105-.444-.656-.41-1.211-.394-1.322l9.903 1.391Zm-6.429-8.867c-2.095-.294-4.248.265-5.92 1.757-1.585 1.416-2.334 3.302-2.578 5.039l9.902 1.391c0 .007-.017.123-.107.31-.092.19-.262.457-.556.719-.68.607-1.53.772-2.132.687l1.391-9.903Zm11.665 17.165-.696 4.951 4.951.696.696-4.952-4.951-.695Zm-4.403-.62-4.951-.695-.696 4.951 4.951.696.696-4.951Zm1.947-13.851.695-4.951-4.95-.696-.697 4.951 4.952.696Zm4.402.619 4.952.696.696-4.952-4.952-.696-.696 4.952Zm-3.907-3.831a2.63 2.63 0 0 1 1.14-1.787c.597-.398 1.124-.398 1.325-.37l-1.392 9.903c3.851.542 8.17-1.653 8.83-6.355l-9.902-1.391Zm2.465-2.156c.2.028.707.173 1.172.72a2.63 2.63 0 0 1 .602 2.031l-9.903-1.391c-.66 4.701 2.885 8.001 6.737 8.542l1.392-9.902Zm1.774 2.751a2.597 2.597 0 0 1-1.12 1.754c-.605.406-1.14.405-1.34.377L23.771 6.4c-1.875-.263-3.9.064-5.627 1.225-1.767 1.186-2.91 3.046-3.207 5.156l9.903 1.391Zm-2.46 2.13c-.202-.027-.716-.174-1.185-.73a2.598 2.598 0 0 1-.594-1.995l9.903 1.392c.297-2.11-.29-4.213-1.661-5.84-1.341-1.592-3.197-2.465-5.072-2.729l-1.392 9.903Zm.878 10.006-4.403-.618-1.392 9.902 4.403.619 1.392-9.903Zm-.148 5.029 1.947-13.852-9.903-1.392-1.946 13.852 9.902 1.392Zm-3.7-9.597 4.402.62 1.392-9.904-4.402-.618-1.392 9.902Zm.147-5.028-1.947 13.852 9.903 1.391 1.947-13.851-9.903-1.392ZM30.678 32.4l-.696 4.952 4.952.695.696-4.95-4.952-.697Zm-4.403-.619-4.95-.695-.697 4.95 4.951.697.696-4.952Zm1.408-10.015 4.951.696.696-4.952-4.951-.695-.696 4.95Zm-2.575-.362-4.951-.696-.696 4.951 4.951.696.696-4.951Zm.54-3.836.695-4.952-4.951-.696-.696 4.952 4.951.696Zm2.574.362-.696 4.95 4.952.697.695-4.951-4.95-.696Zm7.762-3.478 4.951.696.454-3.231-2.774-1.717-2.631 4.252Zm-.489 3.476-2.59 4.277 6.486 3.928 1.056-7.51-4.952-.695Zm-2.87.62-4.951-.695-.696 4.95 4.951.697.696-4.952Zm3.398.478 4.952.696.696-4.951-4.952-.696-.696 4.951Zm-.539 3.836-.696 4.952 4.952.695.696-4.95-4.952-.697Zm-3.398-.477.696-4.952-4.952-.696-.696 4.952 4.952.696Zm-.712 5.064-4.403-.619-1.392 9.903 4.403.619 1.392-9.903Zm-.147 5.028 1.407-10.015-9.902-1.392-1.408 10.016 9.903 1.391Zm-2.848-15.662-2.575-.362-1.392 9.902 2.575.362 1.392-9.902Zm1.68 5.285.54-3.836-9.903-1.392-.539 3.836 9.903 1.392Zm-5.107.42 2.574.36 1.392-9.902-2.575-.362-1.391 9.903Zm8.221-3.895.07-.489-9.903-1.392-.07.49 9.903 1.392Zm.07-.489c.038-.28.087-.338.048-.264a1.413 1.413 0 0 1-.411.457c-.233.172-.43.223-.483.233-.032.006.1-.023.459.027l1.391-9.903c-2.35-.33-5.029-.081-7.3 1.594-2.292 1.688-3.285 4.174-3.607 6.464l9.902 1.392Zm-.388.453c.208.03.355.069.444.1.092.03.104.046.054.015l5.262-8.504c-1.29-.798-2.798-1.293-4.368-1.514l-1.392 9.903Zm-1.823-4.833-.488 3.476 9.902 1.392.489-3.476-9.903-1.392Zm7.053-.105c-1.03-.624-2.258-.988-3.248-1.127l-1.392 9.902a1.244 1.244 0 0 1-.162-.034 2.482 2.482 0 0 1-.378-.188l5.18-8.553Zm-3.248-1.127c-.741-.105-2.097-.203-3.532.372a5.739 5.739 0 0 0-3.577 4.57l9.902 1.392a4.217 4.217 0 0 1-.898 2.05 4.225 4.225 0 0 1-1.709 1.271c-.5.2-.91.248-1.134.26a2.303 2.303 0 0 1-.444-.013l1.392-9.902Zm-7.11 4.942-.053.387 9.902 1.391.054-.386-9.902-1.392Zm4.202 6.034 3.399.477 1.391-9.902-3.398-.478-1.392 9.903Zm-.857-5.17-.539 3.836 9.903 1.392.539-3.836-9.903-1.392Zm5.108-.419-3.398-.478-1.392 9.903 3.398.478 1.392-9.903Zm-9.046 3.778-1.407 10.015 9.902 1.392 1.408-10.016-9.903-1.391Zm18.63 8.42 4.952.696 1.262-8.983-8.27 3.73 2.056 4.557Zm-.539 3.837 1.786 4.67 2.755-1.053.41-2.921-4.95-.696ZM38.48 23.284l4.951.696.696-4.951-4.952-.696-.695 4.951Zm-2.575-.362-4.951-.695-.696 4.95 4.951.697.696-4.952Zm.54-3.836.695-4.951-4.951-.696-.696 4.951 4.951.696Zm2.574.362-.696 4.951 4.951.696.696-4.951-4.951-.696Zm.572-4.068.695-4.951-4.951-.696-.696 4.951 4.951.696Zm4.402.619 4.952.696.696-4.952-4.952-.696L43.993 16Zm-.572 4.068-4.95-.696-.697 4.951 4.952.696.696-4.951Zm3.785.532 4.952.695.695-4.95-4.95-.697-.697 4.952Zm-.539 3.836-.696 4.951 4.952.696.695-4.951-4.95-.696Zm-3.785-.532.696-4.951-4.951-.696-.696 4.951 4.951.696Zm-2.069 5.512-.539 3.836 9.903 1.392.539-3.837-9.903-1.391Zm2.627-.138a.756.756 0 0 1-.221.06c-.05.004-.202.012-.544-.036l-1.392 9.902c1.915.27 3.746.172 5.728-.586l-3.572-9.34Zm-.765.024a1.957 1.957 0 0 1-.305-.065c-.061-.019-.082-.031-.073-.026a.57.57 0 0 1 .093.067.983.983 0 0 1 .258.343c.022.052.028.082.028.082a.704.704 0 0 1-.009-.116 2.279 2.279 0 0 1 .026-.353L32.79 27.84c-.355 2.526.02 5.264 1.72 7.556 1.707 2.302 4.231 3.45 6.773 3.806l1.392-9.902Zm.018-.068.738-5.253-9.903-1.392-.738 5.253 9.903 1.392Zm-3.517-10.9L36.6 17.97l-1.392 9.903 2.575.362 1.392-9.903Zm1.68 5.285.54-3.836-9.903-1.392-.54 3.837 9.903 1.391Zm-5.108.42 2.575.361 1.392-9.902-2.575-.362-1.392 9.902Zm8.222-3.894.572-4.068-9.903-1.392-.572 4.068 9.903 1.392Zm-5.075.187 4.402.619 1.392-9.903-4.403-.618-1.391 9.902Zm.147-5.028-.572 4.068 9.903 1.392.572-4.068-9.903-1.392Zm3.684 9.715 3.785.532 1.391-9.903-3.785-.532-1.391 9.903Zm-.471-5.115-.54 3.836 9.903 1.392.54-3.837-9.903-1.391Zm5.108-.42-3.785-.531-1.392 9.902 3.785.532 1.392-9.902Zm-9.432 3.724-.593 4.223 9.902 1.391.594-4.222-9.903-1.392Zm-.593 4.223c-.175 1.238-.205 3.22 1.047 5.055 1.329 1.947 3.312 2.602 4.71 2.798l1.391-9.902c.188.026 1.326.247 2.16 1.468.375.55.523 1.08.576 1.44.025.174.029.31.027.394a1.207 1.207 0 0 1-.009.138l-9.902-1.391Zm5.757 7.853c1.442.203 3.153.095 4.725-.615l-4.111-9.115c.289-.13.495-.163.579-.172a.774.774 0 0 1 .198 0l-1.391 9.902Z" mask="url(#a)"/></svg>