<svg width="28" height="28" viewBox="0 0 28 28" fill="none" xmlns="http://www.w3.org/2000/svg">
<rect width="28" height="28" rx="14" fill="white" fill-opacity="0.1"/>
<path fill-rule="evenodd" clip-rule="evenodd" d="M9.20801 8.68231C9.20795 8.12533 9.37961 7.58188 9.69961 7.126C10.0196 6.67013 10.4724 6.324 10.9962 6.13477C11.5201 5.94555 12.0895 5.92244 12.627 6.06858C13.1645 6.21473 13.6438 6.52303 13.9997 6.95147C14.4392 6.41866 15.0656 6.07389 15.7509 5.98768C16.4362 5.90147 17.1285 6.08034 17.6863 6.48771C18.2441 6.89507 18.6251 7.50014 18.7515 8.17917C18.878 8.85819 18.7402 9.55985 18.3663 10.1406H18.9997C19.6075 10.1406 20.1904 10.3821 20.6201 10.8119C21.0499 11.2416 21.2913 11.8245 21.2913 12.4323V14.099C21.2915 14.4178 21.1872 14.7278 20.9944 14.9817C20.8017 15.2356 20.531 15.4194 20.2238 15.5048C20.3438 17.0265 20.2738 18.559 20.0155 20.0656C19.9404 20.5035 19.7251 20.905 19.4019 21.2099C19.0788 21.5147 18.6653 21.7062 18.2238 21.7556L17.4613 21.8406C15.1604 22.0978 12.8381 22.0978 10.5372 21.8406L9.77551 21.7556C9.33404 21.7062 8.92059 21.5147 8.59744 21.2099C8.27429 20.905 8.05894 20.5035 7.98384 20.0656C7.72559 18.5599 7.65561 17.0278 7.77551 15.5048C7.46837 15.4194 7.19769 15.2356 7.0049 14.9817C6.81211 14.7278 6.70782 14.4178 6.70801 14.099V12.4323C6.70801 11.8245 6.94945 11.2416 7.37922 10.8119C7.80899 10.3821 8.39189 10.1406 8.99967 10.1406H9.63301C9.35449 9.70532 9.20696 9.19911 9.20801 8.68231ZM13.3747 8.68231C13.3747 8.29553 13.221 7.9246 12.9475 7.65111C12.674 7.37762 12.3031 7.22397 11.9163 7.22397C11.5296 7.22397 11.1586 7.37762 10.8851 7.65111C10.6117 7.9246 10.458 8.29553 10.458 8.68231C10.458 9.06908 10.6117 9.44001 10.8851 9.7135C11.1586 9.987 11.5296 10.1406 11.9163 10.1406C12.3031 10.1406 12.674 9.987 12.9475 9.7135C13.221 9.44001 13.3747 9.06908 13.3747 8.68231ZM16.083 10.1406C16.2745 10.1406 16.4642 10.1029 16.6411 10.0296C16.818 9.95634 16.9788 9.84892 17.1142 9.7135C17.2496 9.57809 17.357 9.41732 17.4303 9.24039C17.5036 9.06345 17.5413 8.87382 17.5413 8.68231C17.5413 8.4908 17.5036 8.30116 17.4303 8.12423C17.357 7.94729 17.2496 7.78653 17.1142 7.65111C16.9788 7.51569 16.818 7.40827 16.6411 7.33498C16.4642 7.26169 16.2745 7.22397 16.083 7.22397C15.6962 7.22397 15.3253 7.37762 15.0518 7.65111C14.7783 7.9246 14.6247 8.29553 14.6247 8.68231C14.6247 9.06908 14.7783 9.44001 15.0518 9.7135C15.3253 9.987 15.6962 10.1406 16.083 10.1406ZM7.95801 12.4323C7.95801 11.8573 8.42467 11.3906 8.99967 11.3906H13.3747V14.3073H8.16634C8.11109 14.3073 8.0581 14.2854 8.01903 14.2463C7.97996 14.2072 7.95801 14.1542 7.95801 14.099V12.4323ZM14.6247 15.5573H18.9738C19.0905 16.9906 19.0272 18.4348 18.7838 19.854C18.7545 20.0248 18.6705 20.1815 18.5444 20.3004C18.4183 20.4193 18.2569 20.4939 18.0847 20.5131L17.323 20.599C16.4263 20.699 15.5255 20.7581 14.6247 20.7773V15.5573ZM14.6247 14.3073H19.833C19.8883 14.3073 19.9413 14.2854 19.9803 14.2463C20.0194 14.2072 20.0413 14.1542 20.0413 14.099V12.4323C20.0413 11.8573 19.5747 11.3906 18.9997 11.3906H14.6247V14.3073ZM13.3747 15.5573V20.7773C12.473 20.7586 11.5726 20.6991 10.6763 20.599L9.91467 20.5131C9.74254 20.494 9.58128 20.4194 9.45518 20.3007C9.32908 20.182 9.24497 20.0255 9.21551 19.8548C8.97234 18.4359 8.90851 16.9921 9.02551 15.5573H13.3747Z" fill="white" fill-opacity="0.3"/>
</svg>
