<svg xmlns="http://www.w3.org/2000/svg" viewBox="0 0 20 20">
  <path fill="none" stroke="#545454" stroke-miterlimit="10" stroke-width=".3" d="M13.8 1.8A8.6 8.6 0 114.2 15c-.3-.7.8-1.7 1.4-1.4 0 0 0 0 0 0s0 0 0 0A6.6 6.6 0 0017.8 10a6.6 6.6 0 00-4.4-6.2c-.8-.3-.7-2.2.5-2"/>
  <path fill="none" stroke="#545454" stroke-miterlimit="10" stroke-width=".3" d="M13 3.5c-.7-.3-1.5-.4-2.3-.4-1.3 0-2.5.5-3.5 1.3-.2.2-.7-.8-.5-.9.3-.1.7.2 1 0 .5-.1.2-.8.2-.8a7.2 7.2 0 015-.3M4.3 15A8.6 8.6 0 013 1.7c.8-.7 1.2 1.4.6 2a6.6 6.6 0 001.9 10"/>
</svg>
