<svg xmlns="http://www.w3.org/2000/svg" viewBox="0 0 20 20">
  <path fill="none" stroke="#545454" stroke-miterlimit="10" stroke-width=".3" d="M3.7 10.3h-.5a3 3 0 112.5-1.4M3.2 9.5c-.4-.7 1.4-2.2 2-1.2"/>
  <path fill="none" stroke="#545454" stroke-miterlimit="10" stroke-width=".3" d="M5.3 8.3l3.6 5.2c.3.4.5 1.2-.5 1.8-.5.2-1.2.5-1.8-.4L3.2 9.5M6 13.8c0-1 1.2-1.8 2.2-1.4M5.5 13.2c0-1 1.3-1.8 2.2-1.5M5 12.4c.1-1 1.3-1.7 2.2-1.3M4.7 11.8c0-1 1.2-1.7 2-1.3M4.3 11.2c0-1 1.2-1.7 2-1.3M3.9 10.6c0-1 1.2-1.7 2-1.3M3.5 10c0-1 1.2-1.7 2-1.3M8.5 5.7l7.2 2.7M14.4 11.7l-7.1-3M8.5 5.7c-1-.3-2.1 2.5-1.2 3"/>
  <ellipse cx="17.5" cy="11" fill="none" stroke="#545454" stroke-miterlimit="10" stroke-width=".3" rx="4" ry="1.7" transform="rotate(-67 17.5 11)"/>
  <path fill="none" stroke="#545454" stroke-miterlimit="10" stroke-width=".3" d="M18.1 7H18c-.8-.4-2.2.9-3 3s-1 3.9-.1 4.3h.1M17.9 6.9l1 .4M14.9 14.3l1 .4"/>
</svg>
