<svg xmlns="http://www.w3.org/2000/svg" viewBox="0 0 40 40">
  <g fill="currentcolor" fill-rule="evenodd" clip-rule="evenodd">
    <path d="M15.6 16.6c-.6-1-1.2-1.6-1.7-2.8-1.2-3.1.1-6.4 3.2-7.7 3.8-1.7 8.3.5 10 4.3a13 13 0 01.3 9.3c-.8 2.4-2.5 4.9-3.9 7-.9 1.4-4.3 6.9-5.6 7.5a3 3 0 01-3.8-.9c-1.1-1.3-2-4.2-2.5-6-.3-.9-.2-2.2.5-3l.2-.2c-1 .7-1.2 2.2-.9 3.3.5 1.9 1.3 4.7 2.5 6.1 1 1.3 2.6 1.7 4.1 1 1.5-.6 5-6 6-7.5 1.3-2.2 3.1-4.7 4-7 1.2-3.6 1-8.5-1.4-11.5-2.8-3.7-8.7-4.8-11.9-1.2-2.5 3-1.6 6.6.9 9.3z"/>
    <path d="M19.1 19c0-.4-1.2-1.2-1.5-1.4-2.2-1.9-2.6-4.2-1.9-7 .9-3 4.7-4.8 7.5-3 2.8 1.9 4 6.7 3.5 9.9-.7 3.5-2.9 6.7-4.6 9.7 1.8-2.4 4.3-6.8 4.8-9.6.7-3.3-.6-8.4-3.5-10.3-3-1.9-7 0-8 3.3-.6 2.8-.1 5.3 2.1 7 .4.3 1.5 1 1.6 1.3z"/>
    <path d="M16.4 13c0 .8 1 1.9 1.9 2 1.4.4 2.3 1.4 3.1 2.6a4 4 0 01.9 3.1c-.1.9-.5 1.8-1.3 2.2-1.3.6-2 .5-3 1.7-.7.6-.8 1-1.2 1.6-.8 1.3-4.2 1-3-1.9.6-1.1 2.6-1 1.2-3.5-.3-.6-1-1.4.1-1.8 1-.2 1.6.3 1.8 1.2 0-1.1-1.2-1.5-2-1.2-1 .4-.4 1.3 0 1.9 1.2 2.4-.7 2-1.2 3.3-1.4 3.2 2.3 3.8 3.3 2.2l1.1-1.6c1.1-1.2 1.7-1 3-1.6.9-.5 1.3-1.5 1.4-2.5.1-1.4 0-2-.9-3.2-.9-1.2-1.8-2.3-3.3-2.6-.9-.1-1.7-1.1-1.9-2z"/>
  </g>
</svg>
