<svg width="96" height="41" viewBox="0 0 96 41" fill="none" xmlns="http://www.w3.org/2000/svg">
<path fill-rule="evenodd" clip-rule="evenodd" d="M58.9782 14.5836L56.8362 6.42351C55.5305 1.4495 48.4695 1.44948 47.1638 6.4235L45.0218 14.5835C44.3413 17.1761 42.31 19.131 39.8028 19.7733C39.2853 19.57 38.8216 19.2357 38.4618 18.7941L38.2422 18.5246C37.601 17.7376 36.399 17.7376 35.7578 18.5246L35.5382 18.7941C35.1419 19.2804 34.6196 19.6367 34.0381 19.8311C33.0644 19.477 32.3332 18.5993 32.2045 17.5176L30.993 7.34114C30.853 6.16543 29.147 6.16543 29.007 7.34115L27.7955 17.5176C27.7138 18.2044 27.3892 18.8089 26.9139 19.2494C26.7501 19.114 26.5985 18.9618 26.4618 18.7941L26.2422 18.5246C25.601 17.7376 24.399 17.7376 23.7578 18.5246L23.5759 18.7478C23.3577 18.555 23.155 18.342 22.9709 18.1102L22.066 16.9712C21.2653 15.9633 19.7347 15.9633 18.934 16.9712L18.0291 18.1102C17.4318 18.8621 16.6389 19.4165 15.7529 19.7239C14.8947 19.3233 14.2533 18.5199 14.089 17.5341L12.9864 10.9184C12.8007 9.80428 11.1993 9.80428 11.0136 10.9184L9.911 17.5341C9.67383 18.9571 8.44264 20 7 20H0.5C0.223858 20 0 20.2239 0 20.5C0 20.7762 0.223856 21 0.499998 21H7C8.44264 21 9.67383 22.043 9.911 23.466L11.0136 30.0817C11.1993 31.1958 12.8007 31.1958 12.9864 30.0817L14.089 23.466C14.2533 22.4802 14.8947 21.6768 15.7529 21.2762C16.6389 21.5836 17.4318 22.138 18.0291 22.8899L18.934 24.0289C19.7347 25.0368 21.2653 25.0368 22.066 24.0289L22.9709 22.8899C23.155 22.6581 23.3577 22.4451 23.5759 22.2523L23.7578 22.4755C24.399 23.2624 25.601 23.2624 26.2422 22.4755L26.4618 22.206C26.5985 22.0383 26.75 21.8861 26.9139 21.7507C27.3892 22.1912 27.7138 22.7957 27.7955 23.4825L29.007 33.6589C29.147 34.8347 30.853 34.8347 30.993 33.659L32.2045 23.4825C32.3332 22.4008 33.0644 21.5231 34.0381 21.169C34.6196 21.3634 35.1419 21.7197 35.5382 22.206L35.7578 22.4755C36.399 23.2624 37.601 23.2624 38.2422 22.4755L38.4618 22.206C38.8216 21.7644 39.2853 21.4301 39.8028 21.2268C42.31 21.8691 44.3413 23.824 45.0218 26.4165L47.1638 34.5766C48.4695 39.5506 55.5305 39.5506 56.8362 34.5766L58.9782 26.4165C59.4658 24.5589 60.6469 23.0287 62.1996 22.0741C63.094 22.7508 63.7744 23.7105 64.0989 24.8461L66.0385 31.6347C66.3148 32.6018 67.6852 32.6018 67.9615 31.6347L69.9011 24.8461C70.332 23.3381 71.3905 22.1402 72.7444 21.5034C73.042 21.6908 73.3108 21.927 73.5382 22.206L73.7578 22.4755C74.399 23.2624 75.601 23.2624 76.2422 22.4755L76.4618 22.206C76.8561 21.7221 77.3751 21.367 77.9531 21.1719C78.6177 21.42 79.1729 21.9228 79.4791 22.5909L80.5909 25.0166C80.9474 25.7944 82.0526 25.7944 82.4091 25.0166L83.5209 22.5909C83.9651 21.6215 84.9337 21 86 21H95.5C95.7761 21 96 20.7762 96 20.5C96 20.2239 95.7761 20 95.5 20H86C84.9337 20 83.9651 19.3786 83.5209 18.4092L82.4091 15.9835C82.0526 15.2057 80.9474 15.2057 80.5909 15.9835L79.4791 18.4092C79.1729 19.0773 78.6177 19.5801 77.9531 19.8282C77.3751 19.6331 76.8561 19.278 76.4618 18.7941L76.2422 18.5246C75.601 17.7376 74.399 17.7376 73.7578 18.5246L73.5382 18.7941C73.3108 19.0731 73.042 19.3093 72.7444 19.4967C71.3905 18.8598 70.332 17.662 69.9011 16.154L67.9615 9.36538C67.6852 8.39834 66.3148 8.39834 66.0385 9.36538L64.0989 16.1539C63.7744 17.2896 63.094 18.2493 62.1996 18.926C60.6469 17.9714 59.4658 16.4412 58.9782 14.5836Z" fill="white"/>
</svg>
