<svg id="d208f265-817b-49ad-bc57-d36e197477fe" data-name="Layer 1" xmlns="http://www.w3.org/2000/svg" viewBox="0 0 92 181.94"><defs><style>.\36 687d1b4-d278-441f-baf9-0e61bbd55683{fill:#000;}</style></defs><title>telephone</title><path class="6687d1b4-d278-441f-baf9-0e61bbd55683" d="M80.41,0H11.59A11.59,11.59,0,0,0,0,11.59V170.34a11.59,11.59,0,0,0,11.59,11.59H80.41A11.59,11.59,0,0,0,92,170.34V11.59A11.59,11.59,0,0,0,80.41,0ZM90,170.34a9.59,9.59,0,0,1-9.59,9.59H11.59A9.59,9.59,0,0,1,2,170.34V11.59A9.59,9.59,0,0,1,11.59,2H80.41A9.59,9.59,0,0,1,90,11.59Z"/><path class="6687d1b4-d278-441f-baf9-0e61bbd55683" d="M85.5,22.44H6.5a1,1,0,0,0-1,1v129.5a1,1,0,0,0,1,1h79a1,1,0,0,0,1-1V23.44a1,1,0,0,0-1-1Zm-78,2h77v127.5H7.5Z"/><path class="6687d1b4-d278-441f-baf9-0e61bbd55683" d="M29.63,16.19H62.38a4.12,4.12,0,0,0,0-8.25H29.63a4.12,4.12,0,1,0,0,8.25Zm0-6.25H62.38a2.13,2.13,0,0,1,0,4.25H29.63a2.13,2.13,0,1,1,0-4.25Z"/><path class="6687d1b4-d278-441f-baf9-0e61bbd55683" d="M16.69,16.19a4.12,4.12,0,1,0-4.12-4.12A4.13,4.13,0,0,0,16.69,16.19Zm0-6.25a2.13,2.13,0,1,1-2.13,2.13A2.13,2.13,0,0,1,16.69,9.94Z"/><path class="6687d1b4-d278-441f-baf9-0e61bbd55683" d="M46,157.56a9.37,9.37,0,1,0,9.38,9.38A9.38,9.38,0,0,0,46,157.56Zm5.22,14.59a7.37,7.37,0,1,1,2.16-5.21A7.35,7.35,0,0,1,51.22,172.15Z"/><path class="6687d1b4-d278-441f-baf9-0e61bbd55683" d="M13.08,41,24,30a1,1,0,0,0-1.41-1.41L11.67,39.54A1,1,0,0,0,13.08,41Z"/><path class="6687d1b4-d278-441f-baf9-0e61bbd55683" d="M33.82,28.57,11.67,50.73a1,1,0,0,0,1.41,1.41L35.24,30a1,1,0,0,0-1.41-1.41Z"/></svg>